<svg xmlns="http://www.w3.org/2000/svg" width="39.424" height="39.424" viewBox="0 0 39.424 39.424">
  <path id="facebook_1_" data-name="facebook (1)" d="M5.775,39.424H18.634V25.41h-4.62V20.79h4.62V15.015A5.781,5.781,0,0,1,24.409,9.24h5.775v4.62h-4.62a2.313,2.313,0,0,0-2.31,2.31v4.62h6.722l-.77,4.62H23.254V39.424H33.649a5.781,5.781,0,0,0,5.775-5.775V5.775A5.781,5.781,0,0,0,33.649,0H5.775A5.781,5.781,0,0,0,0,5.775V33.649A5.781,5.781,0,0,0,5.775,39.424ZM2.31,5.775A3.469,3.469,0,0,1,5.775,2.31H33.649a3.469,3.469,0,0,1,3.465,3.465V33.649a3.469,3.469,0,0,1-3.465,3.465H25.564V27.72h5.6l1.54-9.24H25.564V16.17h6.93V6.93H24.409a8.094,8.094,0,0,0-8.085,8.085V18.48H11.7v9.24h4.62v9.394H5.775A3.469,3.469,0,0,1,2.31,33.649Zm0,0" fill="#fff"/>
</svg>
