<svg xmlns="http://www.w3.org/2000/svg" width="367.059" height="168.452" viewBox="0 0 367.059 168.452">
  <g id="Group_4" data-name="Group 4" transform="translate(-260.145 -135.867)">
    <g id="Group_1" data-name="Group 1" transform="translate(260.145 135.867)">
      <path id="Path_1" data-name="Path 1" d="M521.927,211.238q5.168.1,5.263-6.8a1.583,1.583,0,0,0-.192-1,2.21,2.21,0,0,0-.955-1,4.418,4.418,0,0,0-2.178-.58,4.952,4.952,0,0,0-1.506.244,4.607,4.607,0,0,0-2.822,2.248,6.751,6.751,0,0,0-.671,4.021A3.022,3.022,0,0,0,521.927,211.238Z" transform="translate(-290.025 -143.49)" fill="#fff"/>
      <path id="Path_2" data-name="Path 2" d="M644.153,224.711a6.552,6.552,0,0,0-6.29-4.5l-22.912.053q-6.6-.379-13.3,4.021c-1.085.894-1.8,1.21-2.152.956s-.465-1.021-.336-2.3l.191-4.594q.288-4.88.385-9.858,0-3.634-3.734-3.827a5.217,5.217,0,0,0-5.263,2.487,10.854,10.854,0,0,1-.67,1.149,28.38,28.38,0,0,1-1.531,2.68,33.7,33.7,0,0,1-6.795,7.943q-2.393,1.819-3.446-.861a14.546,14.546,0,0,1-.573-8.71,6.977,6.977,0,0,1,.287-1.245,7.1,7.1,0,0,0,.479-1.913,1.1,1.1,0,0,0-.144-.813,1.745,1.745,0,0,0-.526-.623,4.909,4.909,0,0,0-2.488-.7,4.97,4.97,0,0,0-1.291.175,4.156,4.156,0,0,0-2.824,2.44,16.86,16.86,0,0,0-1.386,6.795,16.141,16.141,0,0,0,.266,3.072c-.165.118-.331.238-.507.374q-5.55,4.5-9.809,3.061t-8.373-7.369a.265.265,0,0,1-.1-.192,4.221,4.221,0,0,0-.957-1.147,4.943,4.943,0,0,0-5.646-.861,2.932,2.932,0,0,0-1.58,1.864,6.864,6.864,0,0,0-.049,2.443q.382,2.582.67,5.165.288,2.683.575,5.264a96.317,96.317,0,0,1,.812,11.674q.049,5.84-.143,11.581a23.631,23.631,0,0,1-.909,5.646q-.525,1.243-1.051.335a12.387,12.387,0,0,1-1.053-3.013,43.836,43.836,0,0,1-.862-4.45q-.336-2.344-.429-3.877A140.38,140.38,0,0,1,539.3,224q-.051-9.572.623-19.141a202.877,202.877,0,0,1,3.826-28.47q2.871-13.732,6.123-26.174,1.532-6.027,2.873-11.675.094-2.2-2.3-2.584a6.232,6.232,0,0,0-1.014-.088,4.036,4.036,0,0,0-3.866,2.673,161.607,161.607,0,0,0-7.8,28.279,336.488,336.488,0,0,0-4.739,33.5c-.557,6.155-.917,11.861-1.093,17.149-.464.506-1.006,1.076-1.681,1.751q-.864.861-1.579,1.674t-1.2,1.291a18.869,18.869,0,0,1-7.224,4.786q-3.4,1.053-5.5-1.149t-1.913-8.135v-.574q.094-2.2,0-4.4-.287-2.679-3.254-2.679a3.822,3.822,0,0,0-4.019,3.349,27.38,27.38,0,0,0-.127,6.482c-.445.249-.908.532-1.4.87a60.912,60.912,0,0,1-7.131,4.192,11.658,11.658,0,0,1-6.745,1.369,4.393,4.393,0,0,1-2.25-1,18.417,18.417,0,0,1-2.153-2.156l-.766-1q-4.69-4.978-9.713-5.142t-9.714,4.146c-.511.445-.766.456-.766.042a13.068,13.068,0,0,1,.958-3.112q.574-1.409,1.338-3.236,2.3-5.559,4.883-13.027a134.576,134.576,0,0,0,6.172-24.6,96.109,96.109,0,0,0,.238-25.183,14.227,14.227,0,0,0-3.156-7.718,7.969,7.969,0,0,0-4.547-2.614,10.3,10.3,0,0,0-1.991-.2,9.3,9.3,0,0,0-3.225.573,6.015,6.015,0,0,0-3.541,3.153,28.881,28.881,0,0,0-1.532,5.56q-.955,7.136-1.435,14.272c-.1,1.5-.185,3.011-.273,4.518-.039-.04-.07-.08-.11-.12a5.372,5.372,0,0,0-1.724-.622,6.911,6.911,0,0,0-1.817-.049h-.766q-3.83-.093-7.657-.1-5.36,0-10.719-.1-2.87.1-3.541-.574t-.478-3.35q.192-5.073.574-10.049.094-2.2.191-4.4h.1v-1.627q.094-2.01,0-3.925a3.1,3.1,0,0,0-3.159-3.157c-.13-.007-.258-.012-.384-.012a3.48,3.48,0,0,0-3.732,2.883,10.281,10.281,0,0,0-.1,1.434V146q-.285,3.542-.573,7.177-.382,5.266-.766,10.528-.094,1.627-.287,3.255a1.6,1.6,0,0,1-1.532,1.434q-2.2.194-4.4.192h-3.35q-2.773,0-5.551.1a1.985,1.985,0,0,0-1.292.431,1.757,1.757,0,0,0-.621,1.2,1.968,1.968,0,0,0,.43,1.29,2.841,2.841,0,0,0,1.1.814,5.078,5.078,0,0,0,3.062.576h5.36q2.105.1,4.21.1,2.01,0,2.009,2.105v2.3q-.094,3.256-.191,6.508a154.322,154.322,0,0,0,.957,26.605,52.256,52.256,0,0,0,2.393,10.861,26.144,26.144,0,0,0,5.407,9.475,14.625,14.625,0,0,0,9.618,4.643,15.027,15.027,0,0,0,8.134-1.725,22.656,22.656,0,0,0,6.651-5.263c.039-.044.07-.088.108-.133q-.126,3.1-.25,6.208v.5a5.305,5.305,0,0,0,0,1.411,3.07,3.07,0,0,0,2.392,2.489q4.308,1.165,6.03-2.572.669-1.325,1.341-2.737.955-1.908,1.913-3.816a26.028,26.028,0,0,1,5.359-7.055q1.723-1.658,3.829,0a12.962,12.962,0,0,1,2.776,3.319l1.148,1.494a9.248,9.248,0,0,0,6.7,3.36,21.021,21.021,0,0,0,8.564-1.287,41.614,41.614,0,0,0,8.23-3.939c.74-.463,1.41-.922,2.043-1.378a11.072,11.072,0,0,0,2.55,4.9,9.255,9.255,0,0,0,5.31,2.392,17.534,17.534,0,0,0,9.332-.908,22.818,22.818,0,0,0,7.465-5.073c.285-.285.561-.591.841-.886,0,1.665.021,3.3.069,4.858q.191,5.741.861,11.388a80.561,80.561,0,0,0,2.105,11.1,25.664,25.664,0,0,0,2.1,5.168,7.437,7.437,0,0,0,4.162,3.444,7.991,7.991,0,0,0,5.312-.1,6.953,6.953,0,0,0,4.018-3.829,33.012,33.012,0,0,0,2.25-9.617,76.1,76.1,0,0,0,.239-11.1q-.286-5.6-.766-10a1.576,1.576,0,0,1-.095-.48,8.683,8.683,0,0,1-.144-1.961c.03-.543.239-.846.622-.91a4,4,0,0,1,2.106.862,14.094,14.094,0,0,0,17.024-2.8,8.08,8.08,0,0,0,4.891,3.658,12.19,12.19,0,0,0,9.092-1.435q1.435-.861,3.158-2.1,1.053-.67,2.393-1.627-.1,4.211-.479,7.655-.1,1.917-.287,3.829a12.751,12.751,0,0,1-3.541,8.326,91.921,91.921,0,0,0-5.838,7.8q-3.732,5.4-7.943,12.584a153.007,153.007,0,0,0-7.608,14.739,67.587,67.587,0,0,0-4.736,14.162q-1.342,6.6.67,10.863t8.612,4.927a10.867,10.867,0,0,0,5.455-.956,13.381,13.381,0,0,0,4.307-3.35,53.044,53.044,0,0,0,9.378-17.273,131.5,131.5,0,0,0,5.215-21.151q1.771-10.959,2.826-20.336a6.7,6.7,0,0,1,.1-1.148A13.686,13.686,0,0,1,600.6,232.9a28.163,28.163,0,0,1,6.174-5.744,14.446,14.446,0,0,1,6.939-2.489c3.605.081,19.987.111,30.461.091Zm-178.877-27.63q.288-4.809.67-11.7.475-8.465,1-17.094t1-14.189a7.6,7.6,0,0,0,.24-1.161c.1-.607.222-1.272.383-1.991a7.57,7.57,0,0,1,.573-1.743c.224-.442.446-.593.67-.456s.431.788.621,1.95a87.3,87.3,0,0,1,.671,14.852,155.417,155.417,0,0,1-1.722,19.789,73.84,73.84,0,0,1-4.595,17.55Q464.99,201.894,465.276,197.081Zm-9.856,23.762a28.9,28.9,0,0,1-4.452,5.694,13.081,13.081,0,0,1-7.417,3.4,5.651,5.651,0,0,1-4.64-1.627,15.289,15.289,0,0,1-3.493-5.264,46.647,46.647,0,0,1-3.541-12.823,140.194,140.194,0,0,1-1.1-16.8q-.049-8.47.335-16.892a7.914,7.914,0,0,1,.191-1.721,1.946,1.946,0,0,1,1.818-1.723q1.528-.094,2.967-.1h.381q3.253,0,6.413-.1,5.645-.093,11.389-.1h.669a6.071,6.071,0,0,0,3.6-.746q-.2,3.666-.344,7.354-.094,3.651-.286,7.3-.734,16.142-1.288,32.281C456.207,219.573,455.8,220.181,455.42,220.843ZM585.9,264.96a142.441,142.441,0,0,1-5.263,18.326q-3.207,8.851-6.938,13.446-2.253,2.533-3.287,2.531a.67.67,0,0,1-.588-.329q-.813-1.246-.192-5.264a89.7,89.7,0,0,1,1.913-8.947q1.294-4.927,2.535-8.853t1.628-4.881q2.2-5.36,4.5-10.288a70.229,70.229,0,0,1,4.355-8.134q2.056-3.207,3.589-3.493A89.884,89.884,0,0,1,585.9,264.96Z" transform="translate(-277.109 -135.867)" fill="#fff"/>
      <path id="Path_3" data-name="Path 3" d="M401.2,203.1q-.162-.528-.343-1.049c-1.208-3.494-3.265-8.782-6.843-10.348a18.777,18.777,0,0,0-12.56-.833,17.711,17.711,0,0,0-7.332,4.072c-5.54,5.2-5.516,12.371-3.521,20.279a26.424,26.424,0,0,1,9.231-16.688,8.6,8.6,0,0,1,2.286-1.449c6-2.487,9.867,3.615,10.759,8.915a29.934,29.934,0,0,1-2.47,17.7c-1.992,4.186-5.316,8.2-11.172,7.131a11.935,11.935,0,0,1-7.515-5.08c-4.122-5.915-3.922-13.195-5.3-20-1.173-5.8-4.163-11.971-9.79-13.815-4.843-1.586-10.293.645-13.863,4.281a66.335,66.335,0,0,1-4.636,4.93,25.126,25.126,0,0,1-4.843,2.912l-13.833,6.963-17.138-19.643c-2.454-2.814-5.011-5.839-5.582-9.529-.66-4.266,1.5-8.472,4.131-11.895a41.7,41.7,0,0,1,20.313-14.243c2.326-.738,5.047-1.249,6.773,1.63a6.335,6.335,0,0,1,.8,3.541,22.816,22.816,0,0,1-4.4,12.443,3.337,3.337,0,0,0-.947,2.224A2.1,2.1,0,0,0,326.06,177a5.308,5.308,0,0,0,2.625-2.117,27.414,27.414,0,0,0,5.266-12.208,11.213,11.213,0,0,0-.7-7.037c-1.36-2.567-4.2-4.039-7.027-4.679-8.605-1.946-17.389,2.453-24.359,7.86-7.342,5.7-14.178,14.231-12.414,23.355,1.218,6.3,6.2,11.046,10.616,15.7a131.842,131.842,0,0,1,13.37,16.6,157.62,157.62,0,0,0-45.193,39.936,56.653,56.653,0,0,0-6.094,9.96c-1.368,2.85-2.657,6.244-1.65,9.325,1.287,3.941,5.77,5.835,9.864,6.484,12.026,1.91,24.212-2.737,34.551-9.17,6.608-4.111,12.819-9.06,17.39-15.358s7.407-14.066,6.828-21.827c-.533-7.152-3.868-13.8-7.752-19.826l15.18-8.385c-1.607,5.241-2.912,10.663-2.7,16.141s2.079,11.068,6.037,14.861a17.217,17.217,0,0,0,15.447,4.006c5.833-1.287,9.191-8.133,7.033-13.7a18.42,18.42,0,0,1-1.441-6.208c-1.123,5.4-3.447,12.3-9.238,13.084a8.5,8.5,0,0,1-6.064-1.627c-3.8-2.746-5.227-7.286-5.647-11.722a32.819,32.819,0,0,1,3-17.081,12.1,12.1,0,0,1,5.043-5.562c6.068-3.276,10.953,1.271,12.643,6.255,1.21,3.566,1.171,7.413,1.54,11.16.593,6.014,2.355,12.073,6.121,16.8s9.772,7.92,15.78,7.271c6.62-.715,12.069-5.858,15.133-11.77A32.659,32.659,0,0,0,401.2,203.1Zm-79.758,32.242a25.032,25.032,0,0,1-2.017,10.174,28.521,28.521,0,0,1-2.4,4.367,24.091,24.091,0,0,1-2.077,2.933c-.824,1.015-1.647,2.033-2.6,3.041a42.281,42.281,0,0,1-5.432,5.414c-1.07.741-2.147,1.613-3.089,2.361-1.341.992-2.806,1.848-4.147,2.839a21.377,21.377,0,0,1-3.729,2.2c-1.335.861-2.787,1.453-4.116,2.183-.4.245-.793.359-1.194.6a28.271,28.271,0,0,1-2.782,1.323,44.061,44.061,0,0,0-4.483,1.638c-2.359.552-4.729,1.366-7.209,1.78a37.248,37.248,0,0,1-4.829.5,10.9,10.9,0,0,1-1.8-.14,8.123,8.123,0,0,1-2.944-.791,3.736,3.736,0,0,1-2.168-3.653,6.477,6.477,0,0,1,.231-2.227,24.815,24.815,0,0,1,2.656-7.117,53.12,53.12,0,0,1,4.609-7.3,75.227,75.227,0,0,1,6.454-8c1.372-1.649,2.873-3.293,4.366-4.8,1.9-1.887,3.672-3.782,5.567-5.539,1.622-1.505,3.371-2.875,5.118-4.243a113.531,113.531,0,0,1,9.13-6.958,91.882,91.882,0,0,1,9.487-6.282c.8-.491,1.605-1.114,2.541-1.727a7.336,7.336,0,0,1,1.06-.479c.729,1.084,1.328,2.163,1.927,3.245a17.132,17.132,0,0,0,1.068,2.154,1.122,1.122,0,0,1,.358.675c-.024.524.347.937.581,1.474.329,1.331,1.052,2.547,1.121,3.867.112.4.095.794.211,1.064A15.137,15.137,0,0,1,321.439,235.346Z" transform="translate(-260.145 -137.557)" fill="#fff"/>
    </g>
  </g>
</svg>
