<svg xmlns="http://www.w3.org/2000/svg" xmlns:xlink="http://www.w3.org/1999/xlink" width="101.787" height="321.572" viewBox="0 0 101.787 321.572">
  <defs>
    <linearGradient id="linear-gradient" y1="0.479" x2="0.84" y2="0.479" gradientUnits="objectBoundingBox">
      <stop offset="0" stop-color="#93396b"/>
      <stop offset="1" stop-color="#c6516c"/>
    </linearGradient>
  </defs>
  <path id="Union_2" data-name="Union 2" d="M-5278.443,2938.556c2.806-2.721,7.955-7.717,15.586-8.958,4.5-.731,7.092.3,12.447-1.407a28.055,28.055,0,0,0,7.662-3.833c-7.3,20.963-14.367,26.285-19.8,26.785a24.691,24.691,0,0,1-6.1-.553c-4.089-.686-8.746-1.421-13.822,1.053-2.917,1.422-5.14,2.664-5.14,2.664S-5284.829,2944.75-5278.443,2938.556Zm-13.326,9.591c-3.472-7.986-11.118-9.541-14.822-13.357-3.8-3.918-5.726-12.567,2.314-33.256a28.187,28.187,0,0,0,3.339,7.906c2.968,4.781,5.6,5.687,8.55,9.177,5,5.914,5.674,13.065,6.043,16.96.839,8.869-3.244,17.942-3.244,17.942S-5290.475,2951.127-5291.77,2948.148Zm35.909-49.4c2.553-2.959,7.243-8.391,14.735-10.3,4.421-1.128,7.091-.335,12.274-2.5a27.994,27.994,0,0,0,7.294-4.5c-5.422,21.526-11.993,27.455-17.357,28.435a24.746,24.746,0,0,1-6.125-.012c-4.135-.321-8.838-.641-13.677,2.274-2.778,1.674-4.884,3.109-4.884,3.109S-5261.676,2905.481-5255.86,2898.745Zm-12.43,10.734c-4.161-7.648-11.916-8.519-15.94-11.992-4.133-3.566-6.811-12.011-.626-33.33a28.138,28.138,0,0,0,4.022,7.578c3.378,4.5,6.081,5.17,9.324,8.384,5.5,5.448,6.8,12.512,7.515,16.358,1.617,8.76-1.65,18.16-1.65,18.16S-5266.738,2912.333-5268.29,2909.479Zm26.269-56.754c2.062-3.321,5.847-9.421,12.95-12.482,4.19-1.8,6.951-1.44,11.733-4.394a28.1,28.1,0,0,0,6.5-5.583c-2,22.111-7.57,28.993-12.716,30.8-5.012,1.76-12.548-.264-19.206,5.333-2.484,2.089-4.34,3.835-4.34,3.835S-5246.717,2860.289-5242.021,2852.725Zm-10.605,12.55c-5.3-6.9-13.1-6.55-17.611-9.35-4.639-2.875-8.6-10.8-5.812-32.823a28.141,28.141,0,0,0,5.155,6.856c4.036,3.917,6.81,4.154,10.515,6.821,6.28,4.521,8.67,11.294,9.972,14.982,2.962,8.4,1.2,18.2,1.2,18.2S-5250.648,2867.85-5252.627,2865.275Zm16.3-61.51c1.633-3.553,4.633-10.077,11.3-14,3.934-2.314,6.72-2.3,11.1-5.823a28.153,28.153,0,0,0,5.762-6.352c.756,22.189-3.914,29.714-8.8,32.148-4.753,2.373-12.481,1.3-18.395,7.688-2.205,2.382-3.83,4.346-3.83,4.346S-5240.051,2811.854-5236.33,2803.764Zm-8.967,13.773c-6.117-6.187-13.807-4.865-18.636-7.081-4.958-2.274-9.87-9.642-9.837-31.844a28.11,28.11,0,0,0,5.965,6.159c4.49,3.382,7.272,3.274,11.28,5.458,6.792,3.7,10,10.125,11.752,13.623,3.98,7.965,3.446,17.9,3.446,17.9S-5243.015,2819.847-5245.3,2817.537Zm1.423-48.634c-6.849-5.362-14.311-3.075-19.379-4.659-5.207-1.628-11.009-8.312-13.778-30.34a28.066,28.066,0,0,0,6.694,5.353c4.882,2.786,7.628,2.324,11.879,3.983,7.205,2.81,11.2,8.774,13.376,12.022,4.954,7.4,5.68,17.323,5.68,17.323S-5241.318,2770.9-5243.874,2768.9Zm7.155-14.8c1.172-3.732,3.324-10.584,9.443-15.322,3.61-2.794,6.375-3.129,10.272-7.184a28.127,28.127,0,0,0,4.913-7.031c3.552,21.915-.131,29.97-4.667,33.006-4.415,2.956-12.217,2.876-17.276,9.958-1.889,2.643-3.251,4.8-3.251,4.8S-5239.388,2762.6-5236.719,2754.1Zm-13.234-30.43c-4.9-2.791-9.592-2.36-13.713-1.938a24.79,24.79,0,0,1-6.137.164c-5.387-.848-12.1-6.611-18.052-28a28.045,28.045,0,0,0,7.4,4.316c5.234,2.042,7.885,1.184,12.332,2.2,7.537,1.726,12.358,7.042,14.985,9.935,5.978,6.591,8.141,16.307,8.141,16.307S-5247.133,2725.278-5249.953,2723.673Zm4.923-15.69c.616-3.862,1.747-10.956,7.111-16.538,3.164-3.294,5.851-4.029,9.115-8.61a28.1,28.1,0,0,0,3.836-7.676c6.706,21.161,4.236,29.668.191,33.336-3.937,3.569-11.668,4.633-15.641,12.38-1.482,2.891-2.518,5.222-2.518,5.222S-5246.433,2716.781-5245.03,2707.983Zm-19.89-27.906c-4.723-2.977-9.377-2.792-13.481-2.558a25.392,25.392,0,0,1-6.27-.106c-5.344-1.088-11.793-7.148-16.779-28.78a28.043,28.043,0,0,0,7.2,4.644c5.138,2.274,7.823,1.536,12.221,2.753,7.451,2.063,12.03,7.59,14.523,10.6,5.679,6.853,7.4,16.656,7.4,16.656S-5262.174,2681.808-5264.92,2680.077Zm5.621-15.451c.787-3.831,2.235-10.867,7.843-16.2,3.309-3.147,6.025-3.761,9.491-8.192a28.128,28.128,0,0,0,4.176-7.5c5.752,21.441,2.9,29.83-1.3,33.312-4.095,3.39-11.863,4.1-16.179,11.666-1.611,2.821-2.749,5.1-2.749,5.1S-5261.094,2673.351-5259.3,2664.625Z" transform="translate(5309.876 -2632.734)" fill="url(#linear-gradient)"/>
</svg>
