<svg xmlns="http://www.w3.org/2000/svg" xmlns:xlink="http://www.w3.org/1999/xlink" width="101.787" height="321.573" viewBox="0 0 101.787 321.573">
  <defs>
    <linearGradient id="linear-gradient" y1="0.521" x2="0.84" y2="0.521" gradientUnits="objectBoundingBox">
      <stop offset="0" stop-color="#93396b"/>
      <stop offset="1" stop-color="#c6516c"/>
    </linearGradient>
  </defs>
  <path id="Union_3" data-name="Union 3" d="M-8664.4,2942.317c-5.075-2.474-9.731-1.739-13.822-1.055a24.672,24.672,0,0,1-6.1.555c-5.43-.5-12.5-5.823-19.8-26.785a28.018,28.018,0,0,0,7.663,3.832c5.354,1.7,7.944.676,12.444,1.408,7.633,1.241,12.783,6.236,15.588,8.958,6.385,6.194,9.164,15.75,9.164,15.75S-8661.478,2943.739-8664.4,2942.317Zm3.878-16.066c.371-3.9,1.047-11.048,6.045-16.961,2.948-3.49,5.582-4.4,8.55-9.177a28.118,28.118,0,0,0,3.338-7.9c8.041,20.688,6.117,29.338,2.314,33.255-3.7,3.816-11.349,5.371-14.82,13.357-1.3,2.981-2.181,5.371-2.181,5.371S-8661.355,2935.119-8660.518,2926.251Zm-27.629-23.44c-4.841-2.917-9.545-2.595-13.68-2.274a24.731,24.731,0,0,1-6.121.013c-5.365-.98-11.937-6.909-17.358-28.434a28.115,28.115,0,0,0,7.293,4.5c5.185,2.169,7.856,1.375,12.276,2.5,7.492,1.91,12.182,7.343,14.736,10.3,5.814,6.736,7.738,16.5,7.738,16.5S-8685.367,2904.485-8688.146,2902.812Zm5.279-15.66c.711-3.847,2.016-10.912,7.515-16.36,3.243-3.213,5.948-3.882,9.323-8.383a28.222,28.222,0,0,0,4.025-7.578c6.183,21.319,3.507,29.765-.628,33.33-4.024,3.474-11.778,4.345-15.938,11.993-1.553,2.854-2.647,5.156-2.647,5.156S-8684.483,2895.911-8682.867,2887.151Zm-21.24-30.077c-6.658-5.6-14.2-3.573-19.207-5.334-5.146-1.807-10.712-8.692-12.714-30.8a28.011,28.011,0,0,0,6.5,5.582c4.781,2.957,7.543,2.59,11.734,4.4,7.1,3.06,10.888,9.159,12.949,12.482,4.693,7.563,5.073,17.509,5.073,17.509S-8701.622,2859.162-8704.107,2857.074Zm7.655-14.643c1.3-3.687,3.688-10.46,9.971-14.98,3.7-2.667,6.479-2.906,10.517-6.821a28.175,28.175,0,0,0,5.154-6.856c2.785,22.025-1.176,29.95-5.812,32.823-4.516,2.8-12.309,2.448-17.612,9.35-1.979,2.575-3.417,4.68-3.417,4.68S-8699.416,2850.832-8696.452,2842.432ZM-8711.5,2808.1c-5.913-6.385-13.643-5.317-18.4-7.687-4.88-2.437-9.552-9.96-8.795-32.15a28.112,28.112,0,0,0,5.762,6.352c4.378,3.529,7.163,3.51,11.1,5.823,6.668,3.922,9.669,10.449,11.3,14,3.72,8.091,2.862,18.007,2.862,18.007S-8709.294,2810.482-8711.5,2808.1Zm9.412-13.574c1.748-3.5,4.959-9.92,11.751-13.623,4.008-2.182,6.791-2.075,11.28-5.457a28.1,28.1,0,0,0,5.966-6.161c.033,22.2-4.88,29.57-9.839,31.845-4.827,2.215-12.518.895-18.635,7.082-2.283,2.307-3.97,4.218-3.97,4.218S-8706.07,2802.492-8702.089,2794.525Zm.309-48.593c2.176-3.246,6.172-9.21,13.377-12.021,4.251-1.658,7-1.2,11.877-3.983a27.978,27.978,0,0,0,6.7-5.352c-2.771,22.03-8.571,28.713-13.778,30.34-5.068,1.583-12.53-.7-19.38,4.658-2.556,2-4.471,3.683-4.471,3.683S-8706.734,2753.329-8701.78,2745.933Zm-11.05,12.272c-5.058-7.084-12.859-7-17.274-9.958-4.538-3.035-8.221-11.094-4.667-33.007a28.073,28.073,0,0,0,4.913,7.032c3.9,4.053,6.66,4.389,10.273,7.183,6.117,4.738,8.271,11.589,9.441,15.323,2.67,8.5.566,18.224.566,18.224S-8710.941,2760.847-8712.83,2758.2Zm19.1-57.177c2.628-2.9,7.448-8.21,14.984-9.936,4.448-1.018,7.1-.16,12.331-2.2a28.009,28.009,0,0,0,7.405-4.314c-5.948,21.385-12.665,27.149-18.052,28a24.826,24.826,0,0,1-6.137-.165c-4.121-.421-8.811-.855-13.715,1.937-2.818,1.606-4.957,2.987-4.957,2.987S-8699.705,2707.615-8693.729,2701.027Zm-12.717,10.521c-3.972-7.747-11.7-8.811-15.641-12.379-4.047-3.669-6.514-12.177.191-33.336a28.168,28.168,0,0,0,3.836,7.674c3.266,4.582,5.95,5.317,9.115,8.611,5.365,5.582,6.494,12.675,7.11,16.54,1.4,8.8-2.095,18.113-2.095,18.113S-8704.963,2714.439-8706.445,2711.548Zm27.085-54.247c2.494-3.009,7.074-8.536,14.526-10.6,4.4-1.219,7.082-.48,12.219-2.755a28.005,28.005,0,0,0,7.2-4.643c-4.985,21.633-11.436,27.693-16.778,28.781a25.333,25.333,0,0,1-6.269.1c-4.106-.232-8.761-.417-13.482,2.562-2.746,1.729-4.821,3.2-4.821,3.2S-8685.038,2664.153-8679.36,2657.3Zm-12.234,11.083c-4.313-7.562-12.085-8.275-16.178-11.666-4.2-3.481-7.054-11.87-1.3-33.31a28.141,28.141,0,0,0,4.177,7.494c3.465,4.431,6.183,5.045,9.49,8.192,5.61,5.336,7.056,12.373,7.843,16.2,1.795,8.725-1.28,18.187-1.28,18.187S-8689.984,2671.2-8691.595,2668.384Z" transform="translate(8738.772 -2623.407)" fill="url(#linear-gradient)"/>
</svg>
