<svg xmlns="http://www.w3.org/2000/svg" xmlns:xlink="http://www.w3.org/1999/xlink" width="778.164" height="471.916" viewBox="0 0 778.164 471.916">
  <defs>
    <linearGradient id="linear-gradient" y1="0.5" x2="1" y2="0.5" gradientUnits="objectBoundingBox">
      <stop offset="0" stop-color="#b8aac2"/>
      <stop offset="1" stop-color="#a493b2"/>
    </linearGradient>
  </defs>
  <g id="Group_677" data-name="Group 677" transform="translate(-195 -2733.435)">
    <g id="Group_47" data-name="Group 47" transform="matrix(-0.998, 0.07, -0.07, -0.998, 521.135, 3151.775)">
      <g id="Group_44" data-name="Group 44" transform="translate(39.584 17.841)">
        <path id="Path_37" data-name="Path 37" d="M0,0C2.975,1.141,4.621,3.206,6.341,5.152a67.663,67.663,0,0,1,8.62,13.127c7.257,13.548,14.622,27.04,22.7,40.12A196.915,196.915,0,0,0,64.45,92.318c9.16,9.4,18.587,18.548,27.487,28.184,16.263,17.608,29.815,37.1,39.087,59.329,2.736,6.56,4.871,13.365,7.177,20.1,2.866,8.366,4.293,17.09,7.1,25.446,1.083,3.23,1.2,6.64,1.45,10a3.214,3.214,0,0,1-4.693,3.011,21.86,21.86,0,0,1-3.891-2.243c-5.031-3.6-10.067-7.195-15-10.92-6.582-4.965-13.038-10.1-19.611-15.072-13.346-10.1-25.7-21.221-36.392-34.183-4.9-5.937-9.7-11.933-14.008-18.294-7.461-11.016-11.5-23.444-14.85-36.2C32.629,99.875,28.027,78.044,23.144,56.273,20.057,42.508,15.464,29.26,8.1,17.1,6.358,14.214,4.7,11.272,3.1,8.3,1.769,5.845.232,3.449,0,0Z" transform="translate(68.041 2.788)" fill="url(#linear-gradient)"/>
        <path id="Path_38" data-name="Path 38" d="M.892,184.865C.716,182.38.333,179.212.3,176.04c-.134-11.964-.624-23.925.053-35.9,1.516-26.829,9.623-51.37,25.063-73.429,2.792-3.987,5.611-7.957,8.308-12.008,4.993-7.5,10.992-14.219,16.566-21.263A39.291,39.291,0,0,0,58.6,13.5c.328-2.6.562-5.211.828-7.819.115-1.117.139-2.246.316-3.352A2.443,2.443,0,0,1,61.814.011C62.731-.124,63.6.97,63.637,2.4c.091,3.741.122,7.484.188,11.226q.355,19.919.724,39.838a100.339,100.339,0,0,1-.764,14.556c-.818,6.494-1,13.057-2.137,19.527-2.931,16.655-7.117,32.943-14.021,48.439a151.481,151.481,0,0,1-27.386,40.891c-2.914,3.17-5.865,6.3-8.808,9.447A21.507,21.507,0,0,1,9.444,188.3C5.74,191.336,2.063,190.118.892,184.865Z" transform="translate(0 0)" fill="url(#linear-gradient)"/>
      </g>
      <path id="Path_39" data-name="Path 39" d="M48.577,48.413c.535,8.042,1.155,16.079,1.588,24.127a372.609,372.609,0,0,1-.808,56.719,507.758,507.758,0,0,1-11.615,70.367c-3.1,12.745-6.064,25.524-9.517,38.18a44.221,44.221,0,0,1-1.539,4.817,4.221,4.221,0,0,1-1.474,1.576c-.689.511-2.3-.275-2.184-1.048.254-1.664.561-3.326.969-4.959,4.137-16.544,7.952-33.163,11.329-49.878a461.2,461.2,0,0,0,9.153-89.33c.064-13.681-.26-27.354-1.273-41a51.7,51.7,0,0,0-.928-7.757c-.855.169-1.157.486-1.268,1.085-2.526,13.721-7.322,26.755-12.421,39.65-7.445,18.826-15.273,37.5-22.939,56.237-.354.867-.7,1.741-1.109,2.583a3.74,3.74,0,0,1-3.192,1.978c-.652.081-1.015-.365-1.2-.928-.457-1.382.248-2.582.714-3.777,3.069-7.858,6.221-15.683,9.273-23.547,6.848-17.646,13.951-35.193,19.7-53.252,4.415-13.865,6.3-28.117,7.426-42.536.641-8.244,1.1-16.464-.747-24.626a4.033,4.033,0,0,1-.125-1.669A2.049,2.049,0,0,1,37.215.095,1.59,1.59,0,0,1,38.7.314c.868.962,1.975,1.978,2.255,3.15.733,3.072,2.806,5.269,4.471,7.729,3.586,5.3,6.314,11.056,9.2,16.73C64.419,47.152,72.8,67.017,81.2,86.874a355.944,355.944,0,0,0,21.744,43.768,259.16,259.16,0,0,0,16.011,23.081q15.9,21.106,31.954,42.095c1.474,1.934,3.114,3.741,4.656,5.623a1.546,1.546,0,0,1-.062,2.058c-.725.888-1.755,1.811-2.87,1.143A15.621,15.621,0,0,1,148.8,201.4c-4-4.715-7.958-9.466-11.772-14.33q-14.741-18.8-29.326-37.718c-6.758-8.8-12.061-18.5-17.215-28.287C83.922,108.608,78.6,95.6,73.325,82.569,68.4,70.409,63.388,58.284,58.389,46.153c-.57-1.384-1.3-2.7-1.955-4.048-.444-2.85-1.834-5.22-3.941-8.379.428,3.788.964,6.444,2.219,8.916C60.79,64.719,65.091,87.2,69.66,109.61c5.167,25.35,10.093,50.749,15.3,76.091,3.777,18.376,8.673,36.48,13.648,54.566,3.984,14.483,8.813,28.665,14.176,42.679q1.406,3.676,2.988,7.283c2.8,6.34,5.588,12.687,8.5,18.975,1.88,4.056,3.36,8.35,6.6,11.665a1.8,1.8,0,0,1-.736,2.8c-2.393,1.17-3.825.948-5.475-1a42.721,42.721,0,0,1-5.325-8.569,347.068,347.068,0,0,1-19.046-46.229c-5.427-16.192-9.856-32.664-14.4-49.113-4.251-15.383-7.51-30.982-10.8-46.577q-6.1-28.9-11.932-57.863c-3.147-15.627-6.05-31.3-9.177-46.935-1.286-6.433-2.875-12.805-4.327-19.2-.088-2.644-1.028-5.048-2.321-8.377C47.565,43.36,47.68,45.94,48.577,48.413Z" transform="translate(59.348 0)" fill="#892142"/>
      <g id="Group_45" data-name="Group 45" transform="translate(0 214.607)">
        <path id="Path_40" data-name="Path 40" d="M98.3,46.77a3.426,3.426,0,0,0,2.276-.859c7.265-5.864,15.724-9.592,24.069-13.531A59.6,59.6,0,0,1,136.8,28.466a9.67,9.67,0,0,1,5.3.184c2.654.88,3.522,2.4,2.85,5.031a14.728,14.728,0,0,1-3.753,6.793,70.135,70.135,0,0,1-6.035,5.642,107.426,107.426,0,0,1-17.808,11.908,2.973,2.973,0,0,0-1.673,1.733,1.1,1.1,0,0,0-.342.028c-.065.027-.092.144-.136.22l.509-.186c.992.37,1.883-.076,2.813-.316a174.257,174.257,0,0,1,22.69-4.469,48.852,48.852,0,0,1,11.943-.229,5.218,5.218,0,0,1,3.5,1.885c1.374,1.565,1.358,2.713.146,4.411a8.562,8.562,0,0,1-3.053,2.7,90.3,90.3,0,0,1-25.1,9.278c-8.936,1.7-17.868,3.387-26.888,4.589-4.929.657-9.886.746-14.837,1A138.538,138.538,0,0,1,66.3,78.088c-4.774-.465-9.615-.554-14.318-1.716a23.508,23.508,0,0,0-2.461-.213,73.993,73.993,0,0,1-14.894-3.177C29.161,71.044,23.7,69.108,18.2,67.256A47.721,47.721,0,0,1,5.3,60.031,13.6,13.6,0,0,1,.167,53.186c-.605-1.9.51-5.179,2.194-6.175a4.989,4.989,0,0,1,2.36-.633c3.161-.055,6.306-.119,9.38,1.016,5.045,1.864,10.157,3.548,15.226,5.3.708-.92-.1-1.3-.511-1.643A52.9,52.9,0,0,1,17.151,36.708,19.456,19.456,0,0,1,15.286,31.7a6.045,6.045,0,0,1,7.406-7.536,12.048,12.048,0,0,1,3.79,1.6,39.86,39.86,0,0,1,7.683,6.219c1.22,1.283,2.218,2.842,3.921,3.613l.287.473-.19-.52a3.666,3.666,0,0,0-.435-2.787c-1.667-3.69-2.1-7.692-2.944-11.589a18.048,18.048,0,0,1,.172-6.573A8.49,8.49,0,0,1,38.759,8.48,7.01,7.01,0,0,1,47.221,8.4a19.118,19.118,0,0,1,6.416,7.43c1.276,2.446,2.416,4.964,3.641,7.438a9.047,9.047,0,0,0,.9,1.367c.3.4,1.121.173,1.35-.318a6.953,6.953,0,0,0,.427-2.417A56.634,56.634,0,0,1,62.806,7.371,11.108,11.108,0,0,1,69.4.44a4.593,4.593,0,0,1,5.313.979,21.674,21.674,0,0,1,5.976,8.818c2.3,6.815,4.084,13.74,3.751,21.034-.006.119.12.245.252.5,1.676-.842,2.444-2.526,3.4-3.938A76.679,76.679,0,0,1,101.11,13.523a17.72,17.72,0,0,1,6.562-3.43c3.148-.984,5.352.669,5.717,4.036a3.664,3.664,0,0,1,.044.411,30.082,30.082,0,0,1-2.624,11.9c-2.919,6.784-7.237,12.627-11.642,18.443a10.318,10.318,0,0,0-.9,1.846,2.862,2.862,0,0,0-.718.311.365.365,0,0,0,.074.662c.055.031.256-.107.32-.21A6.829,6.829,0,0,0,98.3,46.77Z" transform="translate(0)" fill="#ffaad3"/>
        <path id="Path_41" data-name="Path 41" d="M46.405,26.973c-1.188-4.151-3.243-7.917-5.188-11.722A28.931,28.931,0,0,0,36.3,8.125a6.706,6.706,0,0,0-2.672-1.9,2.861,2.861,0,0,0-3.081.533,4.145,4.145,0,0,0-1.633,3.189c.024,2.754-.2,5.5.588,8.216.688,2.38,1.161,4.823,1.686,7.248.225,1.037,1.062,2.435.114,3.076-1.214.821-1.7-.924-2.519-1.52a11.911,11.911,0,0,1-1.441-1.482,48.756,48.756,0,0,0-7.708-6.874,10.546,10.546,0,0,0-3.3-1.664c-2.54-.646-4.049.281-4.485,2.85a11.23,11.23,0,0,0,.975,6.456,53.162,53.162,0,0,0,5.393,8.807c.381.55,1.433,1.025.681,2.054-1.565-.542-3.144-1.045-4.689-1.633a26.6,26.6,0,0,0-8.923-1.5,7.2,7.2,0,0,0-3.222.589A3,3,0,0,0,.046,38.189a7.079,7.079,0,0,0,3.032,4.753,68.533,68.533,0,0,0,22.79,12.25c1.574.479,3.267.573,4.835,1.067,6.146,1.934,12.278,1.178,18.419.053a1.34,1.34,0,0,0,.739-.328,1.778,1.778,0,0,0,.542-1.009,1.419,1.419,0,0,0-.576-.97,3.856,3.856,0,0,0-2.4-.364c-3.721.043-7.447.162-11.162.019a33.007,33.007,0,0,1-7.35-.957c-5.323-1.449-10.586-3.125-15.322-6.107A92.087,92.087,0,0,1,3.908,39.54c-.426-.354-.79-.865-.461-1.4a1.415,1.415,0,0,1,1.055-.5A25.215,25.215,0,0,1,15.379,39.69,85.479,85.479,0,0,1,23.9,43.87c2.581,1.593,5.16,3.167,7.6,4.97,1.08.8,1.889.767,2.543.026a1.922,1.922,0,0,0-.345-2.9c-.515-.455-1.1-.829-1.649-1.248a63.918,63.918,0,0,1-14.887-16.5,21.18,21.18,0,0,1-2.75-6.885,1,1,0,0,1,1.25-1.147c2.54.581,4.415,2.238,6.195,3.966A88.863,88.863,0,0,1,34.976,39.555c1.42,2.2,2.9,4.362,4.349,6.544.47.707.971,1.379,1.966,1.153.809-.183,1.134-1.32.726-2.454-.093-.259-.22-.507-.323-.762-1.964-4.855-4.021-9.675-5.864-14.576a66.905,66.905,0,0,1-3.986-16.868,11.424,11.424,0,0,1-.074-1.648,1.186,1.186,0,0,1,.895-1.231,1.383,1.383,0,0,1,1.123.377,28.155,28.155,0,0,1,2.944,3.98A110.143,110.143,0,0,1,46.814,38.054a11.234,11.234,0,0,1,.636,3.648,8.123,8.123,0,0,0,.453,2.83,1.575,1.575,0,0,0,1.935,1.139,1.53,1.53,0,0,0,1.382-1.728,42.513,42.513,0,0,1-.051-5.37c.711-7.261,1.39-14.531,2.378-21.758.463-3.386.9-6.848,2.337-10.041.655-1.454.878-3.245,2.872-3.641C60.037,4.224,60.074,5.81,60.2,7.257A74.438,74.438,0,0,1,59.944,25,152.563,152.563,0,0,1,56.58,42.842a17.11,17.11,0,0,0-.333,3.28,1.331,1.331,0,0,0,.716,1.375,1.746,1.746,0,0,0,1.927-.3,4.11,4.11,0,0,0,.963-1.308c2.7-5.259,5.422-10.51,8.061-15.8a79.571,79.571,0,0,1,9.747-14.811A27.071,27.071,0,0,1,80.913,12.1a1.877,1.877,0,0,1,1.463-.468c.715.217.36.93.193,1.4a92.94,92.94,0,0,1-4.582,11.507c-3.73,7.215-7.308,14.5-11.806,21.285a14.378,14.378,0,0,0-1.314,3.03,1.281,1.281,0,0,0,.286,1.511,1.592,1.592,0,0,0,1.907.252,16.746,16.746,0,0,0,2.07-1.353c1.1-.834,2.123-1.764,3.233-2.58C78.8,41.944,85.239,37.2,91.721,32.51a47.671,47.671,0,0,1,9.162-4.78,7.621,7.621,0,0,1,2.018-.388c.593-.078.888.519.684,1.116a8.584,8.584,0,0,1-2.257,2.924A117.941,117.941,0,0,1,82.958,46.778a49.029,49.029,0,0,1-6.692,4.107,1.421,1.421,0,0,0-.832,1.713,1.647,1.647,0,0,0,1.593,1.129,9.192,9.192,0,0,0,2.842-.367c4.717-1.543,9.441-3.071,14.1-4.779a121.55,121.55,0,0,1,27.4-6.078A7.527,7.527,0,0,1,123,42.6a.406.406,0,0,1,.3.238c.031.235.084.6-.043.7a7.9,7.9,0,0,1-1.983,1.447c-2.688,1.07-5.39,2.125-8.147,3-8.157,2.58-16.444,4.7-24.8,6.519-5.785,1.26-11.554,2.715-17.568,2.394-2.474-.132-4.955-.122-7.434-.177-1.2-.026-2.516-.449-3.407.724-.49.645.961,1.553,3.167,1.95.271.049.543.1.818.129A63.419,63.419,0,0,0,84.86,58.237c5.915-1.359,11.791-2.884,17.685-4.326a205.062,205.062,0,0,0,19.737-6.148,17.739,17.739,0,0,0,6.328-3.847,2.121,2.121,0,0,0-.017-3.274,5.462,5.462,0,0,0-3.246-1.689,15.664,15.664,0,0,0-3.708-.195c-6.591.656-13.175,1.372-19.557,3.3-2.112.637-4.259,1.162-6.4,1.707-.515.131-1.144.274-1.375-.441-.191-.591.176-1.041.585-1.426.2-.189.428-.347.644-.519,3.246-2.589,6.064-5.635,9.039-8.513a15.61,15.61,0,0,0,2.659-3.674c1.348-2.4.067-4.767-2.7-5.039a15.374,15.374,0,0,0-8,1.691A96.557,96.557,0,0,0,80.06,36.1c-1,.73-2,1.464-3.031,2.148a.8.8,0,0,1-.723-.124.832.832,0,0,1-.279-.683,7.543,7.543,0,0,1,.667-1.947c2.2-3.819,4.115-7.782,6.1-11.712a54.124,54.124,0,0,0,3.3-8.459,12.039,12.039,0,0,0,.428-4.084c-.131-2.663-2.156-3.947-4.618-3.027a10.6,10.6,0,0,0-3.845,2.379,52.324,52.324,0,0,0-5.67,6.563,87.885,87.885,0,0,0-8.446,13.695A1.955,1.955,0,0,1,61.977,32.1c1.207-2.107.97-4.326,1.384-6.463A62.885,62.885,0,0,0,63.645,6.7a12.918,12.918,0,0,0-1.8-5.458A2.317,2.317,0,0,0,59.453.011,5.9,5.9,0,0,0,54.146,4.03c-1.494,3.848-3.042,7.692-3.61,11.849-.521,3.814-1.227,7.6-1.9,11.4-.108.608-.11,1.379-.905,1.655C46.775,28.615,46.616,27.711,46.405,26.973ZM74.693,39.461c.27-.042.351.144.178.448-.053.092-.21.125-.32.185l-.089-.362C74.538,39.638,74.6,39.476,74.693,39.461Z" transform="translate(10.889 18.364)" fill="#ff8089"/>
        <path id="Path_42" data-name="Path 42" d="M14.728,1.418c.516.241,1.765.8,2.99,1.408a2.47,2.47,0,0,1,1.223,2.01,1.448,1.448,0,0,1-.658,1.745,9.215,9.215,0,0,1-1.5.668c-4.467,1.475-8.919,1.01-13.3-.316A4.651,4.651,0,0,1,.146,3.6c-.427-1.59.062-2.7,1.695-3.1A18.352,18.352,0,0,1,5.085.06,21.818,21.818,0,0,1,14.728,1.418Z" transform="translate(58.712 70.962)" fill="#953451"/>
      </g>
      <g id="Group_46" data-name="Group 46" transform="translate(108.439 275.167)">
        <path id="Path_43" data-name="Path 43" d="M111.831,52.161a4.658,4.658,0,0,0,2.041-2.6c4.31-11.929,11.511-22.218,18.431-32.671A80.94,80.94,0,0,1,143.666,3.782,13.129,13.129,0,0,1,149.947.265c3.7-.847,5.781.308,6.854,3.838a20.018,20.018,0,0,1,.425,10.536,95.2,95.2,0,0,1-3.038,10.8,145.958,145.958,0,0,1-12.3,26.377,4.041,4.041,0,0,0-.723,3.191,1.507,1.507,0,0,0-.377.275c-.056.077-.006.231,0,.351l.459-.574c1.414-.269,2.133-1.415,3.046-2.349A236.544,236.544,0,0,1,167.5,31.541a66.346,66.346,0,0,1,13.713-8.678,7.09,7.09,0,0,1,5.391-.273c2.7.851,3.487,2.194,3.276,5.022A11.629,11.629,0,0,1,188.24,32.9c-6.313,10.471-13.477,20.222-22.63,28.461-9.184,8.266-18.372,16.518-28,24.268-5.263,4.234-10.96,7.829-16.529,11.615a188.125,188.125,0,0,1-24.363,13.836c-5.874,2.823-11.56,6.129-17.841,8.091a31.971,31.971,0,0,0-3.009,1.486c-6.343,2.754-12.725,5.387-19.541,6.8-7.711,1.6-15.423,3.2-23.107,4.913-6.665,1.489-13.372,1.294-20.083.694A18.471,18.471,0,0,1,2.35,128.727C.31,126.948-.7,122.351.55,120.008a6.779,6.779,0,0,1,2.3-2.4c3.634-2.29,7.243-4.579,11.613-5.425,7.174-1.388,14.3-3.031,21.425-4.562.175-1.568-1.038-1.443-1.751-1.548-8.45-1.249-16.22-4.434-23.655-8.452a26.387,26.387,0,0,1-5.694-4.5c-4.7-4.61-2.972-11.877,3.3-13.971a16.378,16.378,0,0,1,5.528-.814,54.128,54.128,0,0,1,13.3,1.814c2.321.631,4.578,1.739,7.1,1.435l.667.347c-.2-.156-.392-.314-.587-.471a4.982,4.982,0,0,0-2.468-2.931c-4.535-3.112-7.855-7.458-11.583-11.388-2.1-2.216-3.288-5.018-4.43-7.759a11.531,11.531,0,0,1,.087-9.77c1.972-4.177,5.024-6.218,9.771-6.057a25.976,25.976,0,0,1,12.687,4.113c3.206,1.944,6.3,4.065,9.469,6.076a12.247,12.247,0,0,0,2.007.956c.633.254,1.424-.589,1.345-1.32a9.442,9.442,0,0,0-1.206-3.109c-2.958-6.051-5.6-12.2-6.918-18.883a15.089,15.089,0,0,1,2.775-12.694,6.24,6.24,0,0,1,6.863-2.6,29.43,29.43,0,0,1,13.153,6.036c7.477,6.294,14.421,13.085,19.172,21.794.077.143.311.2.642.4,1.354-2.158,1.06-4.656,1.175-6.969a104.165,104.165,0,0,1,5.052-25.79,24.068,24.068,0,0,1,5.208-8.607c2.964-3.359,6.689-2.993,9.484.662a4.958,4.958,0,0,1,.34.446A40.855,40.855,0,0,1,112.05,19.73c1.386,9.936.485,19.765-.534,29.625a13.914,13.914,0,0,0,.259,2.775,3.9,3.9,0,0,0-.614.867c-.161.444.086.738.552.717.086,0,.222-.3.224-.469A9.14,9.14,0,0,0,111.831,52.161Z" transform="translate(0 0)" fill="#ffaad3"/>
        <path id="Path_44" data-name="Path 44" d="M47.192,48.847c-4.3-3.986-9.344-6.913-14.283-9.963a39.26,39.26,0,0,0-10.73-4.817,9.1,9.1,0,0,0-4.442-.323,3.885,3.885,0,0,0-3.2,2.789,5.63,5.63,0,0,0,.349,4.854c1.968,3.182,3.642,6.525,6.47,9.13C23.827,52.8,26.1,55.3,28.415,57.751c.991,1.047,2.947,2.08,2.3,3.492-.832,1.809-2.629.126-4,.008A16.057,16.057,0,0,1,24,60.546a66.285,66.285,0,0,0-13.8-2.557A14.326,14.326,0,0,0,5.2,58.38c-3.407,1.038-4.506,3.178-3.2,6.47a15.268,15.268,0,0,0,5.68,6.813c3.86,2.722,8.19,4.518,12.469,6.432.83.372,2.387.182,2.239,1.907-2.2.473-4.388,1-6.6,1.406a36.139,36.139,0,0,0-11.424,4.54A9.763,9.763,0,0,0,1.031,88.9c-1.455,2.122-1.354,3.614.2,5.626,1.756,2.265,4.226,3.047,6.871,3.385a93.092,93.092,0,0,0,35.1-1.819c2.166-.552,4.2-1.635,6.369-2.167,8.5-2.083,15.093-7.278,21.434-12.91a1.83,1.83,0,0,0,.627-.9,2.419,2.419,0,0,0-.082-1.554,1.926,1.926,0,0,0-1.352-.721c-1.183-.078-2.083.669-3.044,1.266-4.292,2.67-8.537,5.434-12.954,7.884a44.786,44.786,0,0,1-9.213,4.065c-7.2,2.065-14.5,3.826-22.1,3.7a124.892,124.892,0,0,1-16.22-1.377c-.746-.11-1.528-.447-1.521-1.3a1.922,1.922,0,0,1,.871-1.328c4.36-2.647,9.069-4.763,14.082-5.277,4.253-.436,8.5-1.178,12.838-1.142,4.121.033,8.226.045,12.332.419,1.815.166,2.735-.44,2.973-1.762.286-1.583-.625-2.793-2.445-3.125-.918-.168-1.863-.188-2.8-.288a86.841,86.841,0,0,1-28.916-8.686,28.746,28.746,0,0,1-8.044-6.062,1.356,1.356,0,0,1,.642-2.212c3.361-1.114,6.705-.51,9.99.245,8.967,2.058,17.78,4.609,26.095,8.655,3.2,1.557,6.441,3.026,9.661,4.54,1.045.49,2.1.919,3.1-.045.811-.783.388-2.333-.885-3.362-.292-.236-.612-.433-.913-.658-5.7-4.257-11.485-8.408-17.077-12.8A90.932,90.932,0,0,1,20.147,42.4,15.384,15.384,0,0,1,18.9,40.533a1.611,1.611,0,0,1,.172-2.06,1.878,1.878,0,0,1,1.57-.352,38.166,38.166,0,0,1,6.223,2.55c10.248,5.926,19.994,12.572,28.6,20.76A15.252,15.252,0,0,1,58.78,65.22,11.061,11.061,0,0,0,61.3,68.189a2.139,2.139,0,0,0,3.05-.04,2.079,2.079,0,0,0,.389-2.981,57.66,57.66,0,0,1-3.843-6.2c-4.288-8.936-8.62-17.861-12.561-26.952-1.847-4.26-3.776-8.59-4.357-13.311-.264-2.15-1.265-4.387.772-6.252,2.256.367,3.415,2.184,4.586,3.774A101.137,101.137,0,0,1,61.529,37.016c3.17,7.587,6.4,15.16,8.659,23.1a23.218,23.218,0,0,0,1.924,4.044,1.808,1.808,0,0,0,1.8,1.094,2.373,2.373,0,0,0,2.026-1.707,5.57,5.57,0,0,0,.2-2.2c-.564-8.013-1.1-16.028-1.765-24.033a108.143,108.143,0,0,1,.893-24.073,36.866,36.866,0,0,1,1.544-5.976,2.55,2.55,0,0,1,1.37-1.574c.983-.251,1.074.826,1.208,1.487,1.116,5.5,2.4,10.922,2.781,16.6.748,11.009,1.72,21.989,1.276,33.042a19.547,19.547,0,0,0,.608,4.445,1.742,1.742,0,0,0,1.4,1.556,2.162,2.162,0,0,0,2.394-1.051,22.755,22.755,0,0,0,1.452-3.029c.687-1.743,1.224-3.545,1.938-5.275,4.143-10.044,8.276-20.093,12.506-30.1a64.8,64.8,0,0,1,7.277-12,10.377,10.377,0,0,1,2.071-1.872c.633-.509,1.4-.023,1.58.816.379,1.74-.221,3.348-.562,4.985-2.232,10.7-6.172,20.83-10.5,30.822a66.5,66.5,0,0,1-4.882,9.485,1.93,1.93,0,0,0,.24,2.576,2.238,2.238,0,0,0,2.645.189,12.513,12.513,0,0,0,3.043-2.428c4.392-5.114,8.8-10.218,13.013-15.482,8.014-10.024,17.509-18.472,27.551-26.359a10.194,10.194,0,0,1,1.957-1.037.551.551,0,0,1,.512.067c.2.252.519.634.447.849a10.745,10.745,0,0,1-1.286,3.077c-2.369,3.135-4.766,6.264-7.354,9.219-7.659,8.744-15.794,17.042-24.221,25.041-5.832,5.538-11.51,11.292-18.723,15.154-2.967,1.589-5.843,3.348-8.76,5.03-1.409.812-3.239,1.249-3.448,3.24-.115,1.094,2.209,1.127,5.053.035.35-.134.7-.266,1.041-.426a86.157,86.157,0,0,0,23.453-16.258c5.914-5.744,11.666-11.653,17.5-17.48a278.639,278.639,0,0,0,18.6-21.043,24.115,24.115,0,0,0,4.642-8.927c.525-1.917-.427-3.275-2.326-3.791a7.414,7.414,0,0,0-4.961.325,21.235,21.235,0,0,0-4.444,2.384c-7.195,5.4-14.34,10.873-20.4,17.6-2.006,2.227-4.129,4.349-6.23,6.488-.506.516-1.136,1.124-1.908.456a1.862,1.862,0,0,1-.325-2.069c.1-.36.254-.7.383-1.055,1.948-5.3,3.076-10.817,4.5-16.256a21.192,21.192,0,0,0,.5-6.141c-.121-3.733-3.28-5.586-6.688-3.951-3.493,1.675-5.965,4.452-8.1,7.6-4.974,7.335-8.53,15.386-11.923,23.52-.648,1.553-1.291,3.109-2.008,4.631a1.093,1.093,0,0,1-.927.365,1.13,1.13,0,0,1-.805-.6,10.184,10.184,0,0,1-.6-2.731c-.132-5.987-.7-11.937-1.163-17.9a73.431,73.431,0,0,0-2.126-12.15A16.326,16.326,0,0,0,82.71,2.311c-2.029-3-5.285-3.067-7.5-.264a14.4,14.4,0,0,0-2.79,5.471,71.03,71.03,0,0,0-1.966,11.618,119.283,119.283,0,0,0-.166,21.857,2.659,2.659,0,0,1-1.4,2.844c-.082-3.3-1.921-5.709-2.945-8.482C62.934,27.193,58.2,20.007,52.938,13.147A17.549,17.549,0,0,0,47,8.078a3.149,3.149,0,0,0-3.636.257,8.01,8.01,0,0,0-3.336,8.406c.976,5.522,1.885,11.078,4.152,16.307,2.081,4.8,3.931,9.7,5.817,14.577.3.782.843,1.68.114,2.56C48.779,50.494,47.956,49.555,47.192,48.847ZM88.85,43.432c.284-.239.509-.08.523.4,0,.144-.156.293-.241.441l-.358-.359C88.795,43.745,88.757,43.51,88.85,43.432Z" transform="translate(15.996 30.528)" fill="#ff8089"/>
        <path id="Path_45" data-name="Path 45" d="M16.724.48C17.493.4,19.337.165,21.188.01a3.357,3.357,0,0,1,2.837,1.474,1.966,1.966,0,0,1,.465,2.492A12.443,12.443,0,0,1,23.223,5.8c-4.15,4.861-9.649,7.455-15.673,9A6.318,6.318,0,0,1,1.323,13.29C-.293,11.744-.505,10.112,1.113,8.5A24.9,24.9,0,0,1,4.564,5.7,29.642,29.642,0,0,1,16.724.48Z" transform="translate(84.268 98.938)" fill="#953451"/>
      </g>
    </g>
    <g id="Group_51" data-name="Group 51" transform="translate(752.427 2708.576) rotate(14)">
      <path id="Path_46" data-name="Path 46" d="M2526.705,1506.2a11.354,11.354,0,0,1-.392,2.056.8.8,0,0,1-1.228.4,3.85,3.85,0,0,1-1.407-2.036,104.128,104.128,0,0,0-6.61-13.179,51.351,51.351,0,0,0-3.4-5.064c-7.337-9.13-14.257-18.573-21.047-28.109a178.255,178.255,0,0,0-17.824-20.883,371.531,371.531,0,0,1-28.888-32.85c-11.681-15.2-20.429-31.964-27.393-49.751a208.362,208.362,0,0,1-10.823-40.211c-1.9-10.852-3.76-21.713-5.641-32.568-.087-.5-.249-.99-.31-1.493a3.46,3.46,0,0,1,2.073-3.688c1.484-.853,2.848-1.191,4.225-.1a31.5,31.5,0,0,1,3.356,3.111c7.235,7.667,15.386,14.337,23.188,21.388,18.6,16.809,35.174,35.293,48.062,56.965a236.18,236.18,0,0,1,22.068,47.963,282.366,282.366,0,0,1,9.445,39c.954,5.509,2.2,10.966,3.29,16.451,1.258,6.313,2.49,12.632,3.745,18.946.4,1.993.76,4,1.262,5.964,1.129,4.424,2.37,8.819,3.491,13.244C2526.319,1503.224,2526.465,1504.751,2526.705,1506.2Z" transform="translate(-2401.708 -1096.94)" fill="#9d3ebe"/>
      <g id="Group_50" data-name="Group 50" transform="translate(80.049)">
        <g id="Group_48" data-name="Group 48" transform="translate(79.61)">
          <path id="Path_47" data-name="Path 47" d="M2692.342,1107.5a7.352,7.352,0,0,0-5.725,1.6,48.317,48.317,0,0,0-7.274,6.336,107.209,107.209,0,0,0-14.926,21.777c-.6,1.141-.861,2.573-2.962,3.661,0-2.008.037-3.528-.007-5.046a58.94,58.94,0,0,0-1.779-13.6,15.3,15.3,0,0,0-2.848-5.917c-1.333-1.615-3-2.715-5.3-2.243a5.393,5.393,0,0,0-4.515,4.235,21.593,21.593,0,0,0-.135,9.091,100.653,100.653,0,0,0,4.205,16.242,87.46,87.46,0,0,1,4.243,19.343,3.7,3.7,0,0,1-.031,1.959c-1.142,2.067-2.438,4.05-3.693,6.053a.57.57,0,0,1-.416.162c-.427.01-.651-.2-.66-.572-.031-1.356-.088-2.712-.083-4.068a97.068,97.068,0,0,0-1-15.734,22.679,22.679,0,0,0-3.322-9.526,4.649,4.649,0,0,0-5.77-1.973,5.343,5.343,0,0,0-3.736,3.838,20.563,20.563,0,0,0-.715,7.057,73.5,73.5,0,0,0,1.964,13.065c2.037,8.405,4.241,16.775,5.7,25.313a9.5,9.5,0,0,0,1.007,2.846,1.835,1.835,0,0,1-.17,2.29,28.134,28.134,0,0,1-2.031,2.265,1.113,1.113,0,0,1-1.346.315,1.228,1.228,0,0,1-.654-1.254c-.1-1.694-.176-3.393-.149-5.088a60.863,60.863,0,0,0-2-14.58,23.2,23.2,0,0,0-3.65-7.775,5.364,5.364,0,0,0-9.345,1.595,23.349,23.349,0,0,0-1.043,5.473,51.459,51.459,0,0,0,.129,8.134c1.06,9.962,2.458,19.869,5.384,29.5a32.606,32.606,0,0,1,1.718,12.023c-.066.865-.464,2.048.788,2.69,2.349-1.257,5.02-1.768,7.34-3.207,7.494-4.65,15.093-9.13,22.561-13.82,3.874-2.433,7.583-5.134,11.31-7.793a13.747,13.747,0,0,0,2.945-2.777c2.272-2.98,1.557-5.811-1.777-7.528a4.775,4.775,0,0,0-3.916-.4,53.96,53.96,0,0,0-9.192,4.3c-.794.45-1.525,1.494-3.034.554,1.949-1.542,3.771-3.025,5.638-4.449a85.412,85.412,0,0,0,10.422-9.7,18.764,18.764,0,0,0,4.344-7.966c.673-2.43-.261-3.938-2.672-4.6a7.235,7.235,0,0,0-5.4.819,49.837,49.837,0,0,0-9.285,6.215,115.527,115.527,0,0,0-11.681,11.339c-.858.961-1.474,2.3-3.207,2.59-.318-2.781-.9-5.435,2.357-6.881a1.189,1.189,0,0,0,.586-.792c.367-2.8,2.27-3.827,4.735-4.494,2.007-.543,3.465-2.087,4.913-3.522,5.787-5.735,11.6-11.447,17.315-17.252,2.378-2.415,4.564-5.021,6.8-7.577a16.653,16.653,0,0,0,3.135-5.207c.969-2.624.2-4.142-2.443-5.115a5.1,5.1,0,0,0-4.418.226c-1.934,1.056-3.908,2.065-5.725,3.3a49.306,49.306,0,0,0-12.226,12.13,45.533,45.533,0,0,1-3.737,4.915c-1.192-4.047-1.189-4.045,1-6.32a3.832,3.832,0,0,0,.971-1.148c1.014-2.879,3.257-4.6,5.624-6.265a18.93,18.93,0,0,0,2.591-2.441c3.416-3.543,6.9-7.029,10.2-10.679a165.16,165.16,0,0,0,13.652-16.437,18.313,18.313,0,0,0,2.972-5.871A2.908,2.908,0,0,0,2692.342,1107.5Z" transform="translate(-2624.071 -1048.824)" fill="#ff3a73"/>
          <path id="Path_48" data-name="Path 48" d="M2704.474,1070.162a6.959,6.959,0,0,0-2.775,1.146,28.85,28.85,0,0,0-3.845,3.285c-3.228,3.3-5.46,7.3-7.707,11.288-.78,1.385-1.048,3.2-2.754,3.951a16.821,16.821,0,0,1-5.085,9.661c-.348-2.652-.691-5.125-.991-7.6a34.339,34.339,0,0,0-1.922-8.4,21.459,21.459,0,0,0-2.079-4.035,4.176,4.176,0,0,0-4.266-2.168,4.7,4.7,0,0,0-4.006,3.417,16.381,16.381,0,0,0-.547,7.529,81.362,81.362,0,0,0,4.724,18.665c1.153,3,2.18,6.046,3.292,9.061a8.092,8.092,0,0,0,.91,1.78,1.036,1.036,0,0,0,.873.246,1.146,1.146,0,0,0,.778-.535,4.181,4.181,0,0,0,.463-1.936c-.273-1.934.706-3.12,2.015-4.333a119.731,119.731,0,0,0,9.864-10.883c3.056-3.621,6.262-7.115,9.358-10.7a69.061,69.061,0,0,0,6.823-8.836,13.038,13.038,0,0,0,2.2-5.624C2710.1,1071.821,2707.776,1069.59,2704.474,1070.162Z" transform="translate(-2636.543 -1038.297)" fill="#ff3a73"/>
          <path id="Path_49" data-name="Path 49" d="M2694.806,1097.626c.025-.01.036-.03.06-.041l0-.02Z" transform="translate(-2644.017 -1046.049)" fill="#ff3a73"/>
          <path id="Path_50" data-name="Path 50" d="M2691.167,1072.5c1.595-2.732,2.764-5.667,4.289-8.439a181.414,181.414,0,0,0,9.7-20.686,44.056,44.056,0,0,0,2.576-8.758,12.841,12.841,0,0,0-.562-6.512,3.322,3.322,0,0,0-4-2.229,6.122,6.122,0,0,0-4.757,3.354,47.341,47.341,0,0,0-4.333,11.363c-.471,1.8-.873,3.62-1.284,5.435-.1.438-.305.645-.709.485-.286-.113-.675-.265-.774-.5-.653-1.557-1.1-3.217-1.887-4.694-.713-1.333-1.725-2.61-3.556-2.368a4.36,4.36,0,0,0-3.9,2.823,16.62,16.62,0,0,0-.981,3.927,33.792,33.792,0,0,0,.22,7.6c.984,7.475,3.82,14.369,6.5,21.322a4.121,4.121,0,0,0,3.14,2.685A6.535,6.535,0,0,1,2691.167,1072.5Z" transform="translate(-2640.089 -1025.817)" fill="#ff3a73"/>
          <path id="Path_51" data-name="Path 51" d="M2694.8,1097.615l.064-.06c-.029-.007-.052-.02-.08-.027C2694.791,1097.556,2694.793,1097.586,2694.8,1097.615Z" transform="translate(-2644.011 -1046.038)" fill="#ff3a73"/>
        </g>
        <g id="Group_49" data-name="Group 49" transform="translate(0 1.01)">
          <path id="Path_52" data-name="Path 52" d="M2571.833,1230.7a7.984,7.984,0,0,0-3.459.6,17.685,17.685,0,0,0-7.387,5.215,78.622,78.622,0,0,0-13.165,20.427c-.925,2.182-1.986,4.306-2.984,6.456a17.276,17.276,0,0,1-2.681,6.385c-.491-.316-.934-.437-1.006-.67a180.35,180.35,0,0,0-11.04-27.817,10.043,10.043,0,0,1-.467-1.428c-1.352-2.143-2.661-4.318-4.075-6.423a9.972,9.972,0,0,0-3.76-3.357,5.825,5.825,0,0,0-8.6,5.193,33.558,33.558,0,0,0,3.322,14.745,97.642,97.642,0,0,0,15.287,24.491c2.091,2.415,4.069,4.969,6.821,6.782,3.164,2.085,3.748,2.123,6.267-.562.463-.493.852-1.055,1.3-1.562,3.707-4.185,7.379-8.4,11.142-12.536,5.267-5.785,10.2-11.789,13.42-19.016.618-1.386,1.488-2.658,2.234-3.986a23.106,23.106,0,0,0,2.86-8.106A4.107,4.107,0,0,0,2571.833,1230.7Z" transform="translate(-2513.195 -1084.233)" fill="#ff3a73"/>
          <path id="Path_53" data-name="Path 53" d="M2545.8,1058.559a30.648,30.648,0,0,1,3.2,7.96,10.267,10.267,0,0,0,1.118,2.79,2.5,2.5,0,0,0,2.14,1.172c1.039.047,1.443-.771,1.7-1.568.416-1.282.77-2.588,1.059-3.9a50.867,50.867,0,0,0,1.016-11.451,46.271,46.271,0,0,0-1.955-16.17,21.96,21.96,0,0,0-3.124-6.9c-3.108-4.3-6.5-4.335-9.848-.2a7.135,7.135,0,0,0-1.287,2.687,17.889,17.889,0,0,0-.363,8.023A56.788,56.788,0,0,0,2545.8,1058.559Z" transform="translate(-2520.522 -1027.224)" fill="#ff3a73"/>
          <path id="Path_54" data-name="Path 54" d="M2533.993,1152.977a4.51,4.51,0,0,0-.3.434.547.547,0,0,1-.837-.008c-1.055-1.086-1.955-2.328-3.046-3.372-2.349-2.246-4.577-2.177-6.493.266a6.639,6.639,0,0,0-1.089,2.794,24.949,24.949,0,0,0,.031,8.586,65.211,65.211,0,0,0,5.211,16.4q3.282,7.419,6.575,14.833a98.414,98.414,0,0,1,7.1,17.041c.687,2.061,1.335,4.135,2.038,6.19a3.88,3.88,0,0,0,1.517,2.407c.849-.554.511-1.538.853-2.264q-.7-3.222-1.4-6.449a1.76,1.76,0,0,1,1.309-2.345c1.529-.419,2.774-1.012,3.372-2.691,2.369-6.646,6.454-12.259,10.919-17.607a147.421,147.421,0,0,0,10.9-15.306,88,88,0,0,0,4.5-8.529,15.151,15.151,0,0,0,1.378-6.919c-.034-4.387-3.286-5.262-6.672-4.5a5.464,5.464,0,0,0-2.191,1.221,23.232,23.232,0,0,0-3.664,3.487c-6.14,8.139-11.773,16.573-14.847,26.448-1.106,3.555-2.339,7.072-3.573,10.585-.237.674-.171,1.682-1.257,1.8-.237-.279-.557-.5-.641-.785-.235-.807-.386-1.641-.548-2.468-1.99-10.12-2.789-20.493-6.444-30.259a1.615,1.615,0,0,1,.3-1.811c.035.008.05.02.087.027.007-.02.006-.031.014-.051,1.294.006,1.46,1.15,1.813,1.982a91.463,91.463,0,0,1,5.445,17.443c.262,1.281.31,2.734,1.613,3.579,1.932-1.053.692-2.691.652-4.039-.052-1.766-.281-3.322,1.97-4.047,1.6-.515,1.881-2.308,2.479-3.676a91.3,91.3,0,0,1,11.095-19.358c2.479-3.223,4.844-6.532,7.253-9.807a32.7,32.7,0,0,0,5.07-9.346,8.624,8.624,0,0,0,.488-4.988c-.624-2.3-2.163-3.4-4.49-3.077a7.571,7.571,0,0,0-4.895,2.423c-2.24,2.54-4.663,4.935-6.737,7.6a58.693,58.693,0,0,0-10.224,21.419c-.414,1.571-.373,3.383-1.708,4.623-.246-.14-.427-.182-.449-.265-.378-1.471-.8-2.936-1.092-4.425-1.975-9.965-3.336-20.089-7.753-29.409-.241-.508.042-.86.355-1.195.053-.019.077-.008.136-.032,0-.02,0-.037,0-.057.966.035,1.4.785,1.852,1.458a55.815,55.815,0,0,1,6.469,12.079c.282.786.423,1.656,1.229,2.142,2.9-.343,4.76-2.037,6.367-4.4,3.246-4.764,6.8-9.316,10.06-14.074,2.584-3.775,4.994-7.677,7.327-11.615a29.722,29.722,0,0,0,3.771-9.948,12.259,12.259,0,0,0,.15-3.526c-.238-2.025-1.356-2.951-3.343-3.207a4.9,4.9,0,0,0-4.25,1.227,49.407,49.407,0,0,0-4.89,5.157,60.651,60.651,0,0,0-6.319,10.426,91.159,91.159,0,0,0-6.474,17.094,11.325,11.325,0,0,1-1.908,4.661.531.531,0,0,1-.46.164,1.543,1.543,0,0,1-.7-.547,1.665,1.665,0,0,1-.078-1.906c1.229-1.529.865-3.113.391-4.8-1.376-4.9-2.753-9.8-3.953-14.738a68.2,68.2,0,0,0-3.343-9.6c-.574-1.409-1.4-2.713-2.037-4.1-.325-.706-1.156-1.581-.25-2.242,1.162-.846,1.822.381,2.381,1.075,1.6,1.979,3.086,4.045,4.585,6.1a6.973,6.973,0,0,1,1.7,5.175,5.507,5.507,0,0,0,.638,2.943c.791,1.819,1.723,2.194,3.618,1.521a3.387,3.387,0,0,0,2.018-2.107c.806-1.862,1.637-3.719,2.567-5.521a154.194,154.194,0,0,0,10.693-26.9,59.822,59.822,0,0,0,1.36-5.943,8.973,8.973,0,0,0-.394-5.008,3.558,3.558,0,0,0-3.031-2.361,6.144,6.144,0,0,0-5.473,2.1,23.519,23.519,0,0,0-5.064,8.157,97.232,97.232,0,0,0-4.984,17.592c-.1.52.166,1.412-.556,1.432a1.446,1.446,0,0,1-1.24-1.122c-1.521-3.954-2.975-7.935-4.576-11.856a49.4,49.4,0,0,0-7.662-12.55,14.877,14.877,0,0,0-4.941-4.329,4.633,4.633,0,0,0-5.955,1.2,4.7,4.7,0,0,0-1.152,4.241,26.426,26.426,0,0,0,3.548,9.47,63.777,63.777,0,0,0,7.258,9.8c.9,1.005,1.747,2.067,2.556,3.149a.914.914,0,0,1-1.341,1.192c-.743-.4-1.421-.922-2.146-1.359-2.193-1.321-4.2-.824-6.135.615-2.062,1.537-2.308,3.69-1.906,5.949a32.961,32.961,0,0,0,4.467,11.832c1.98,3.164,4,6.3,5.991,9.46.441.7.978,1.381.519,2.282a4.557,4.557,0,0,1,.845.324,4.557,4.557,0,0,0-.845-.324h0c-.026-.008-.037-.017-.065-.025h0c-.015.033-.016.052-.029.084-1.548.735-2.279-.81-3.356-1.318-3.181-1.5-6.128-.049-6.82,3.466a13.464,13.464,0,0,0,.276,6.01,59.629,59.629,0,0,0,2.407,7.693c1.66,4.043,3.6,7.972,5.375,11.969.527,1.186,1.493,2.253,1.195,3.709C2534.029,1153,2534.013,1152.989,2533.993,1152.977Zm-.625,1.318c-.017.516.32.964,1.045,1.449.168.112.363.227.572.344h0c-.21-.117-.4-.232-.572-.344C2533.688,1155.259,2533.351,1154.811,2533.368,1154.295Zm2.636,3.836h0a3.856,3.856,0,0,1-.724-.264A3.876,3.876,0,0,0,2536,1158.13Z" transform="translate(-2515.64 -1037.311)" fill="#ff3a73"/>
        </g>
      </g>
      <path id="Path_55" data-name="Path 55" d="M2538.455,1405.339c-1.206-8.047-2.489-16.084-3.6-24.145q-2.573-18.647-4.942-37.323-2.369-18.944-3.354-38.019c-.6-11.7-1.089-23.389-1.172-35.1-.138-19.529.977-39.013,1.906-58.506.485-10.171.892-20.345,1.327-30.518.609-14.243,1.257-28.484,1.8-42.729.508-13.239.14-26.477-.227-39.715-.236-8.483-.414-16.967-.7-25.447-.207-6.089.017-12.226-1.742-18.175a1.4,1.4,0,0,1,.715-1.713c.828-.419,2.437-.154,2.793.561a12.806,12.806,0,0,1,1.288,3.3,70.076,70.076,0,0,1,1.111,8.055c.531,8.3.941,16.6,1.366,24.909q.506,9.912.935,19.829c.656,14.6-.04,29.182-.512,43.764-.489,15.1-1.29,30.18-1.827,45.274-.567,15.943-1.095,31.888-1.439,47.835-.318,14.768.3,29.526,1.031,44.276.582,11.7,1.26,23.388,2.509,35.034,1.212,11.3,2.567,22.583,3.869,33.872.444,3.851.476,7.763,1.679,11.763a11.176,11.176,0,0,0,1.336-5.076c2-17.552,5.577-34.816,9.6-51.988,2.207-9.409,4.952-18.681,7.839-27.907,4-12.775,7.907-25.577,11.953-38.336,4.256-13.419,9.649-26.423,14.65-39.57,4.821-12.674,9.585-25.371,14.41-38.045,2.956-7.764,6.121-15.451,8.941-23.264,4.84-13.408,8.444-27.2,12.2-40.934,4.071-14.882,8.4-29.7,11.6-44.812a11.065,11.065,0,0,1,.62-1.935,1.8,1.8,0,0,1,2.1-1.015,1.363,1.363,0,0,1,1.341,1.743c-.791,4.335-1.487,8.7-2.505,12.981-5.684,23.922-11.744,47.749-18.7,71.337-2.594,8.792-6.094,17.265-9.259,25.857-4.922,13.362-9.629,26.8-14.47,40.2-3,8.292-6.113,16.542-9.108,24.835-4.783,13.245-8.55,26.808-12.6,40.283-3.665,12.178-7.446,24.321-10.36,36.708-3.381,14.377-5.9,28.908-7.86,43.546a443.727,443.727,0,0,0-3.617,67.537c.217,11.534.529,23.066.864,34.6.167,5.762.3,11.536.789,17.275.432,5.058-1.059,9.692-2.4,14.395-.06.209-.548.418-.829.407a.914.914,0,0,1-.7-.511,36.2,36.2,0,0,1-.965-5.5c-.625-13.964-3.3-27.588-6.49-41.15-2.564-10.883-4.809-21.848-8.274-32.491a281.452,281.452,0,0,0-21.836-50.853c-7.552-13.464-14.972-27-23.519-39.875q-4.5-6.778-9.3-13.353a61.794,61.794,0,0,0-9.587-10.515,11.923,11.923,0,0,1-1.987-2.263,1.5,1.5,0,0,1-.054-1.364,3.655,3.655,0,0,1,4.523-1.012,52.013,52.013,0,0,1,7.738,6.59,118.05,118.05,0,0,1,11.926,15.2,442.9,442.9,0,0,1,31.8,53.24,294.428,294.428,0,0,1,15.606,38.086c-.2,1.771.566,3.167,1.731,4.746A4.831,4.831,0,0,0,2538.455,1405.339Zm.855,7.482c.114-.105.349-.243.331-.322a5.059,5.059,0,0,0-.333-.836c-.114.114-.342.254-.323.339A4.805,4.805,0,0,0,2539.31,1412.821Z" transform="translate(-2419.538 -1033.693)" fill="#c48bd8"/>
    </g>
  </g>
</svg>
