<?xml version="1.0" encoding="utf-8"?>
<!-- Generator: Adobe Illustrator 24.0.1, SVG Export Plug-In . SVG Version: 6.00 Build 0)  -->
<svg version="1.1" id="Layer_1" xmlns="http://www.w3.org/2000/svg" xmlns:xlink="http://www.w3.org/1999/xlink" x="0px" y="0px"
	 viewBox="0 0 182.71 153.28" style="enable-background:new 0 0 182.71 153.28;" xml:space="preserve">
<style type="text/css">
	.st0{fill:#FFFFFF;}
</style>
<path class="st0" d="M81.43,7.67c-1.45-0.75-3.26-1.05-5.1-1.51c-0.51-0.13-1.03-0.26-1.55-0.35c-1.17-0.19-2.36-0.28-3.53-0.21
	c-1.43,0.1-2.83,0.38-4.16,0.82c-2.65,0.98-4.91,2.52-6.45,4.76c-1.7,2.34-2.82,4.99-3.24,7.71c-0.41,2.73-0.06,5.45,0.96,8.16
	c1.02,2.7,2.56,5.29,4.47,7.59c1.93,2.33,4.23,4.48,6.68,6.59c2.51,2.07,5.04,4.16,7.6,6.28c1.28,1.06,2.56,2.13,3.86,3.2
	c1.3,1.08,2.63,2.21,3.9,3.46c1.42,1.39,2.73,2.84,3.76,4.64c0.91,1.78,1.52,3.56,1.99,5.39c0.91,3.63,1.07,7.51-0.09,11.08
	c-1.16,3.57-3.74,6.55-6.87,8.47c-3.13,1.97-6.69,3.13-10.36,3.92c4.03-0.92,8.24-2.13,11.5-4.92c3.25-2.76,5.12-6.63,5.25-10.51
	c0.18-3.88-0.94-7.75-2.83-11.25l-0.35-0.62c-0.1-0.17-0.21-0.34-0.33-0.51c-0.24-0.34-0.53-0.68-0.84-1.02
	c-0.62-0.69-1.31-1.34-2.06-1.96c-1.5-1.25-3.21-2.4-5-3.61c-3.6-2.44-7.25-5.04-10.58-7.77c-4.19-3.4-7.72-6.79-10.14-10.09
	c-2.4-3.3-3.73-6.29-4.47-8.58c-0.74-2.28-0.9-3.84-0.99-4.37c-0.07-0.55-0.14-0.12,0.06,1.31c-0.28-1.92-0.47-3.59-0.5-5.3
	c-0.02-1.7,0.11-3.46,0.72-5.35c0.66-1.89,1.58-3.62,2.66-5.15c0.29-0.38,0.54-0.75,0.86-1.12l1-1.12c0.72-0.68,1.43-1.34,2.22-1.87
	c1.55-1.11,3.22-1.92,4.93-2.48c0.84-0.32,1.72-0.48,2.58-0.7c0.87-0.12,1.73-0.32,2.61-0.35c0.94-0.34,3.94-0.42,4.95-0.18
	c4.5,0.93,8.27,3.19,11.21,6.37c1.52,1.62,2.76,3.55,3.66,5.71c1.25,2.99,1.42,6.31,0.88,9.5c0,0.02-0.01,0.03-0.01,0.05
	c-0.21-2.62-1.04-5.62-2.58-8.2c-0.75-1.3-1.7-2.48-2.78-3.46C83.87,9.09,82.64,8.32,81.43,7.67z M63.37,90.11
	c2.33,1.18,4.98,2.27,7.71,3.21c2.69,0.95,5.56,1.92,8.66,2.73c4.08,1.14,8.16,2.23,12.27,3.16c4.16,0.95,8.11,1.63,11.75,2.79
	c3.62,1.13,7,2.73,9.38,5.03c2.36,2.21,3.61,5.34,3.99,8.82c0.38,3.47-0.1,6.96-1.59,9.89c-1.47,2.94-3.93,5.22-7,6.58
	c-3.03,1.38-6.52,1.8-9.9,1.32c-3.35-0.46-6.74-1.88-9.7-3.78c-12.93-8.68-25.81-17.34-38.87-26.11c-1.64-1.09-3.28-2.19-4.92-3.29
	l-1.23-0.82l-0.62-0.41l-0.31-0.21c-0.09-0.06-0.31-0.21-0.48-0.29c-1.07-0.56-2.06-0.91-3.11-1.25c-4.15-1.25-8.8-1.27-12.9,0.34
	l-0.77,0.28L25,98.47c-0.49,0.24-0.98,0.48-1.46,0.74l-1.37,0.88l-0.68,0.44l-0.63,0.51c-1.72,1.3-3.23,2.83-4.56,4.55
	c-2.67,3.41-4.26,7.82-4.16,12.23c0.01,1.22,0.16,2.44,0.38,3.62c0.25,1.16,0.51,2.3,0.92,3.45c0.81,2.27,2.09,4.37,3.7,6.1
	c1.6,1.74,3.47,3.14,5.4,4.32c0.24,0.15,0.49,0.29,0.73,0.43c0.25,0.13,0.46,0.29,0.81,0.44c0.57,0.24,1.11,0.44,1.67,0.61
	c1.11,0.33,2.24,0.55,3.37,0.69c4.48,0.53,9.17-0.14,13.12-2.22c3.93-1.94,7.56-4.23,11.18-6.54c7.21-4.65,41.25-27.84,42.22-28.39
	c0.02-0.01,0.05-0.02,0.07-0.04c-0.24,0.08-0.47,0.22-0.7,0.33c-0.3,0.14-0.6,0.29-0.9,0.44c-0.6,0.31-1.18,0.63-1.76,0.97
	c-0.58,0.34-1.14,0.7-1.71,1.06c-0.59,0.37-1.17,0.74-1.76,1.11c-0.68,0.43-1.36,0.87-2.04,1.3c-0.74,0.48-1.49,0.95-2.23,1.43
	c-0.78,0.5-1.55,1-2.33,1.5c-0.78,0.5-1.56,1.01-2.34,1.51c-0.75,0.49-1.5,0.97-2.26,1.46c-0.69,0.45-1.39,0.9-2.08,1.35
	c-0.61,0.39-1.22,0.79-1.82,1.18c-0.49,0.32-0.98,0.64-1.47,0.96c-0.19,0.12-0.38,0.25-0.58,0.37
	c-8.42,5.42-16.52,11.23-24.85,15.84c-2.09,1.13-4.02,2.27-6.2,3.16c-2.15,0.91-4.46,1.36-6.8,1.46c-2.34,0.09-4.79,0.03-7.03-0.64
	c-0.55-0.17-1.1-0.37-1.62-0.6l-0.37-0.17c-0.08-0.04-0.2-0.12-0.33-0.21l-0.76-0.48c-1.01-0.66-1.97-1.38-2.88-2.17
	c-1.64-1.41-3.05-3.11-4.05-5.07c-0.5-0.97-0.88-2.02-1.16-3.11c-0.25-1.09-0.5-2.28-0.6-3.4c-0.47-4.56,1.15-9.22,4.37-12.71
	c3.22-3.55,7.55-6.15,12.15-6.49c2.29-0.22,4.64,0.14,6.83,0.87c0.54,0.19,1.08,0.39,1.58,0.63c0.26,0.12,0.5,0.24,0.55,0.28
	l0.81,0.55c1.08,0.73,2.15,1.45,3.22,2.17c10.75,7.22,19.97,13.47,27.58,18.67c3.8,2.61,7.21,4.95,10.21,7.02
	c1.51,1.04,2.92,2.02,4.23,2.92c1.4,0.92,2.76,1.66,4.04,2.25c2.54,1.19,4.8,1.83,6.54,2.17c1.74,0.33,2.97,0.41,3.62,0.45
	c0.65,0.04,0.73,0.07,0.22,0.07c-0.51-0.01-1.61,0-3.29-0.26c4.5,0.69,8.56,0.35,12.4-0.94c1.92-0.65,3.76-1.58,5.52-2.87
	c1.74-1.29,3.39-2.94,4.67-5.03c2.59-4.23,3.38-9.11,3.01-13.57c-0.18-2.23-0.64-4.47-1.48-6.61c-0.83-2.13-2.08-4.18-3.68-5.84
	c-3.18-3.32-7.1-5.16-10.87-6.43c-3.82-1.27-7.61-1.94-11.25-2.64c-1.99-0.5-8.01-2.09-10.11-2.57c-4.68-1.05-9.25-2.17-13.84-3.26
	c-4.5-1.04-8.9-2.34-12.53-5.1c-3.58-2.73-6.36-7-7.12-11.96c-0.8-4.93,0.71-10.58,4.65-14.8c-0.76,0.71-1.44,1.5-1.93,2.11
	c-0.46,0.63-0.77,1.05-0.77,1.05c1.02-1.87,2.03-3.14,3.13-4.33c1.11-1.17,2.35-2.25,4.18-3.43c-2.9,1.43-5.79,3.68-7.96,6.78
	c-2.18,3.08-3.56,7.06-3.54,11.21c0,4.15,1.35,8.35,3.72,11.86c1.2,1.75,2.63,3.35,4.27,4.69C59.82,88.14,61.59,89.22,63.37,90.11z"
	/>
</svg>
