<svg xmlns="http://www.w3.org/2000/svg" width="49.217" height="40.405" viewBox="0 0 49.217 40.405">
  <path id="twitter-social-badge" d="M.847,38.192a28.862,28.862,0,0,0,15.5,4.466,28.525,28.525,0,0,0,20.909-8.764,28.437,28.437,0,0,0,7.841-20.051c1.952-1.67,4.248-4.859,4.248-7.968A1.556,1.556,0,0,0,47,4.534a6.428,6.428,0,0,1-5.226.877,11.1,11.1,0,0,0-13.146-1.77,10.679,10.679,0,0,0-5.8,10.009,25.752,25.752,0,0,1-16.7-9.124,1.556,1.556,0,0,0-2.541.207,10.831,10.831,0,0,0-.242,10.7,1.617,1.617,0,0,0-1.351,1.61A10.962,10.962,0,0,0,5.81,25.319a1.552,1.552,0,0,0-.4,1.61,11.157,11.157,0,0,0,6.314,6.764A18.1,18.1,0,0,1,1.87,35.338,1.555,1.555,0,0,0,.847,38.192Zm15.921-3.966a1.555,1.555,0,0,0-.914-2.785,8.106,8.106,0,0,1-6.366-3.311,10.962,10.962,0,0,0,2.122-.34,1.555,1.555,0,0,0-.1-3.023,7.977,7.977,0,0,1-6.045-5.429,10.725,10.725,0,0,0,2.371.315A1.556,1.556,0,0,0,8.721,16.8,7.722,7.722,0,0,1,5.414,8.37a28.894,28.894,0,0,0,19.141,8.544,1.551,1.551,0,0,0,1.589-1.9A7.583,7.583,0,0,1,30.1,6.378a7.946,7.946,0,0,1,9.715,1.475c.926.976,4.051,1.013,5.641.642a10.017,10.017,0,0,1-2.835,3.334,1.554,1.554,0,0,0-.661,1.349A25.27,25.27,0,0,1,35,31.747a25.45,25.45,0,0,1-18.659,7.8,26.1,26.1,0,0,1-8.374-1.372,20.987,20.987,0,0,0,8.8-3.95Z" transform="translate(-0.124 -2.252)" fill="#fff"/>
</svg>
