<svg xmlns="http://www.w3.org/2000/svg" width="47.072" height="40.405" viewBox="0 0 47.072 40.405">
  <g id="youtube" transform="translate(0 -2.753)">
    <path id="Path_7" data-name="Path 7" d="M11.282,7.982A1.64,1.64,0,0,0,8.805,9.389V24.682a1.641,1.641,0,0,0,2.477,1.409L24.1,18.455a1.641,1.641,0,0,0,0-2.816Zm.8,13.818V12.275l7.985,4.769Z" transform="translate(7.593 5.919)" fill="#fff"/>
    <path id="Path_8" data-name="Path 8" d="M39.038,3.885a106.7,106.7,0,0,0-31,0c-3.652.6-6.529,3.8-7.157,7.943a71.041,71.041,0,0,0,0,22.253c.628,4.149,3.5,7.34,7.157,7.943a98.543,98.543,0,0,0,15.524,1.134A97.945,97.945,0,0,0,39.04,42.027c3.648-.6,6.523-3.795,7.155-7.943a71.069,71.069,0,0,0,0-22.257c-.628-4.144-3.5-7.338-7.157-7.941Zm4.256,29.652a6,6,0,0,1-4.688,5.248,103.767,103.767,0,0,1-30.141,0,6,6,0,0,1-4.69-5.248,66.724,66.724,0,0,1,0-21.163A6,6,0,0,1,8.467,7.125a95.837,95.837,0,0,1,15.067-1.1A95.852,95.852,0,0,1,38.6,7.125a6,6,0,0,1,4.69,5.248,66.738,66.738,0,0,1,0,21.165Z" transform="translate(0)" fill="#fff"/>
  </g>
</svg>
