<svg xmlns="http://www.w3.org/2000/svg" width="41.688" height="41.688" viewBox="0 0 41.688 41.688">
  <g id="Group_38" data-name="Group 38" transform="translate(-5.85 -958.212)">
    <path id="Path_9" data-name="Path 9" d="M12.114,6a6.114,6.114,0,1,0,6.114,6.114A6.136,6.136,0,0,0,12.114,6Zm0,2.822a3.292,3.292,0,1,1-3.292,3.292A3.271,3.271,0,0,1,12.114,8.822ZM36.57,18.228a9.347,9.347,0,0,0-6.114,2.234,1.462,1.462,0,0,0-1.411-1.293H21.52a1.466,1.466,0,0,0-1.411,1.411v25.4a1.466,1.466,0,0,0,1.411,1.411h8a1.466,1.466,0,0,0,1.411-1.411V31.867a4.978,4.978,0,0,1,.838-2.807,1.916,1.916,0,0,1,1.514-.955h.941a1.917,1.917,0,0,1,1.514.955,4.978,4.978,0,0,1,.838,2.807V45.977a1.466,1.466,0,0,0,1.411,1.411h8a1.466,1.466,0,0,0,1.411-1.411V29.516c0-3.2-.6-6.043-2.381-8.128S40.37,18.228,36.57,18.228ZM8.2,19.169A1.461,1.461,0,0,0,6.941,20.58v25.4a1.466,1.466,0,0,0,1.411,1.411h8a1.466,1.466,0,0,0,1.411-1.411V20.58a1.466,1.466,0,0,0-1.411-1.411ZM36.57,21.05c3.289,0,5.14.829,6.29,2.175s1.7,3.456,1.7,6.29v15.05H39.392v-12.7a7.655,7.655,0,0,0-1.367-4.453,4.76,4.76,0,0,0-3.807-2.131h-.941a4.76,4.76,0,0,0-3.807,2.131A7.655,7.655,0,0,0,28.1,31.867v12.7H22.931V21.991h4.7v1.881a1.411,1.411,0,0,0,2.513.882C31.712,22.8,33.222,21.05,36.57,21.05Zm-26.808.941h5.173v15.05c-.049,0,0,2.822,0,2.822v4.7H9.762Z" transform="translate(0 952.362)" fill="#fff" stroke="#fff" stroke-width="0.3"/>
  </g>
</svg>
