<svg xmlns="http://www.w3.org/2000/svg" width="37.036" height="40.405" viewBox="0 0 37.036 40.405">
  <path id="pinterest" d="M20.893,43.391l-.74,2.919a1.684,1.684,0,0,0,1.218,2.046,1.73,1.73,0,0,0,.416.051,1.685,1.685,0,0,0,1.631-1.27l.671-2.649a18.466,18.466,0,1,0-3.2-1.1Zm-7-20.823A15.149,15.149,0,1,1,24.917,41.22l1.3-5.118a9.291,9.291,0,0,0,2.3.3,9.263,9.263,0,1,0-8.952-11.686,8.974,8.974,0,0,0-.3,3.135,1.683,1.683,0,1,0,3.355-.269,5.663,5.663,0,0,1,.193-1.979,5.893,5.893,0,1,1,4.225,7.24l1.245-4.914a1.683,1.683,0,1,0-3.264-.827l-1.605,6.335c-.006.022-.012.044-.017.066l-1.663,6.565a15.176,15.176,0,0,1-7.84-17.5Z" transform="translate(-10.002 -8.002)" fill="#fff"/>
</svg>
