<svg xmlns="http://www.w3.org/2000/svg" xmlns:xlink="http://www.w3.org/1999/xlink" width="258.75" height="201.334" viewBox="0 0 258.75 201.334">
  <defs>
    <linearGradient id="linear-gradient" x1="1.058" y1="0.142" x2="-0.006" y2="0.776" gradientUnits="objectBoundingBox">
      <stop offset="0" stop-color="#2a1a37"/>
      <stop offset="0.049" stop-color="#281935"/>
      <stop offset="1" stop-color="#150b1e"/>
    </linearGradient>
    <clipPath id="clip-path">
      <path id="Path_125" data-name="Path 125" d="M1437.045,626.6h-88.993l7.656,73.682h73.682Z" transform="translate(-1348.052 -626.598)" fill="url(#linear-gradient)"/>
    </clipPath>
    <linearGradient id="linear-gradient-3" y1="0.5" x2="1" y2="0.5" gradientUnits="objectBoundingBox">
      <stop offset="0" stop-color="#452870"/>
      <stop offset="1" stop-color="#2a1a37"/>
    </linearGradient>
    <linearGradient id="linear-gradient-4" y1="0.5" x2="1" y2="0.5" gradientUnits="objectBoundingBox">
      <stop offset="0" stop-color="#c5447a"/>
      <stop offset="1" stop-color="#452870"/>
    </linearGradient>
    <linearGradient id="linear-gradient-14" y1="0.5" x2="1" y2="0.5" gradientUnits="objectBoundingBox">
      <stop offset="0" stop-color="#e6c6da"/>
      <stop offset="1" stop-color="#af80c1"/>
    </linearGradient>
    <linearGradient id="linear-gradient-16" y1="0.5" x2="1" y2="0.5" gradientUnits="objectBoundingBox">
      <stop offset="0" stop-color="#3e2042"/>
      <stop offset="1" stop-color="#af80c1"/>
    </linearGradient>
    <linearGradient id="linear-gradient-17" y1="0.5" x2="1" y2="0.5" gradientUnits="objectBoundingBox">
      <stop offset="0" stop-color="#b6a9c2"/>
      <stop offset="1" stop-color="#a493ff"/>
    </linearGradient>
    <linearGradient id="linear-gradient-19" y1="0.5" x2="1" y2="0.5" gradientUnits="objectBoundingBox">
      <stop offset="0" stop-color="#6b339a"/>
      <stop offset="1" stop-color="#a493ff"/>
    </linearGradient>
    <linearGradient id="linear-gradient-20" y1="0.5" x2="1" y2="0.5" gradientUnits="objectBoundingBox">
      <stop offset="0" stop-color="#c0437b"/>
      <stop offset="1" stop-color="#d25d65"/>
    </linearGradient>
  </defs>
  <g id="Group_595" data-name="Group 595" transform="translate(-232.461 -3338.148)">
    <g id="Group_115" data-name="Group 115" transform="translate(232.461 3338.148)" opacity="0.8">
      <g id="Group_105" data-name="Group 105" transform="translate(43.139 18.394)">
        <g id="Group_100" data-name="Group 100" transform="translate(34.158 4.596)">
          <path id="Path_114" data-name="Path 114" d="M1436.809,553.438a138.047,138.047,0,0,1,25.106-97.848l2.184,1.592a135.319,135.319,0,0,0-24.61,95.913Z" transform="translate(-1435.733 -455.59)" fill="#2a1a37"/>
        </g>
        <g id="Group_101" data-name="Group 101" transform="translate(22.123)">
          <path id="Path_115" data-name="Path 115" d="M1425.85,550.081l-2.7-.073c.849-31.477,1.729-64.025-7.554-94.714-1.242-4.105-2.786-6.2-4.859-6.6l.5-2.656c4.166.791,5.957,5.212,6.942,8.468C1427.59,485.618,1426.705,518.389,1425.85,550.081Z" transform="translate(-1410.735 -446.043)" fill="#2a1a37"/>
        </g>
        <g id="Group_102" data-name="Group 102" transform="translate(40.546 44.089)">
          <path id="Path_116" data-name="Path 116" d="M1449.768,593.974a65.955,65.955,0,0,1,14.557-52.143,14.708,14.708,0,0,1,5-4.209l1.107,2.465a12.067,12.067,0,0,0-4.04,3.487,63.217,63.217,0,0,0-13.952,49.979Z" transform="translate(-1449.001 -537.622)" fill="#2a1a37"/>
        </g>
        <g id="Group_103" data-name="Group 103" transform="translate(0 26.013)">
          <path id="Path_117" data-name="Path 117" d="M1400.331,580.776l-2.7-.011c.1-27.648-4.731-49.372-14.78-66.416-1.785-3.029-4.039-6.445-7.221-8.824s-6.977-3.293-10.127-2.427l-.717-2.607c3.948-1.085,8.607-.013,12.462,2.87,3.565,2.665,6.01,6.356,7.931,9.616C1395.478,530.451,1400.435,552.628,1400.331,580.776Z" transform="translate(-1364.782 -500.076)" fill="#2a1a37"/>
        </g>
        <g id="Group_104" data-name="Group 104" transform="translate(26.434 45.976)">
          <path id="Path_118" data-name="Path 118" d="M1431.6,600.315c-.365-17.973-.817-40.342-11.912-57.293l2.262-1.481c11.519,17.6,11.982,40.4,12.353,58.719Z" transform="translate(-1419.689 -541.541)" fill="#2a1a37"/>
        </g>
      </g>
      <g id="Group_109" data-name="Group 109" transform="translate(31.222 105.318)">
        <g id="Group_108" data-name="Group 108" transform="translate(0 0)">
          <g id="Group_107" data-name="Group 107" transform="translate(3.863)">
            <path id="Path_119" data-name="Path 119" d="M1437.045,626.6h-88.993l7.656,73.682h73.682Z" transform="translate(-1348.052 -626.598)" fill="url(#linear-gradient)"/>
            <g id="Group_106" data-name="Group 106" clip-path="url(#clip-path)">
              <path id="Path_121" data-name="Path 121" d="M1403.986,687.849" transform="translate(-1360.801 -658.361)" fill="none" stroke="#03000a" stroke-miterlimit="10" stroke-width="1" opacity="0.7"/>
            </g>
          </g>
          <path id="Path_126" data-name="Path 126" d="M1436.181,639.755h-95.3l-.853-10.261h97.005Z" transform="translate(-1340.029 -628.1)" fill="url(#linear-gradient-3)"/>
        </g>
      </g>
      <g id="Group_110" data-name="Group 110" transform="translate(76.309 48.136)">
        <path id="Path_127" data-name="Path 127" d="M1482.079,537.909c-3.55-18.859-22.693-23.8-22.693-23.8-5.248-2.6-11.869-4.052-16.73-.788-2.924,1.963-4.623,5.261-6.089,8.463-1.453,3.174-2.821,6.5-2.886,9.988s1.445,7.217,4.522,8.867a25.338,25.338,0,0,1,15.082-14.766A31.946,31.946,0,0,0,1442.8,541.5a6.092,6.092,0,0,0-.26,3.52,6.16,6.16,0,0,0,1.649,2.369,38.049,38.049,0,0,0,14.5,9.159,26.344,26.344,0,0,1,6.348-9.2,20.422,20.422,0,0,0-2.037,10,5.934,5.934,0,0,0,.429,2.161,5.455,5.455,0,0,0,1.962,2.112c4.865,3.357,11.279,2.877,17.186,3.1a62.73,62.73,0,0,1,28.669,8.221S1485.628,556.768,1482.079,537.909Z" transform="translate(-1433.68 -509.701)" fill="url(#linear-gradient-4)"/>
        <path id="Path_128" data-name="Path 128" d="M1535.819,551.434a23.147,23.147,0,0,0-2.069-5.166,60.449,60.449,0,0,0-11.823-15.834l4.579,2.469a38.433,38.433,0,0,0-29.321-24.877c-4-.676-9.35.222-10.11,4.209,0,0,19.144,4.936,22.693,23.8s29.171,35.027,29.171,35.027a38.85,38.85,0,0,1-2.461-11.562C1536.324,556.8,1536.45,554.06,1535.819,551.434Z" transform="translate(-1461.369 -507.822)" fill="url(#linear-gradient-4)"/>
      </g>
      <g id="Group_111" data-name="Group 111" transform="translate(0 36.265)">
        <path id="Path_129" data-name="Path 129" d="M1295.139,511.026c-.185-16.373,15.007-23.706,15.007-23.706,3.957-3.05,9.253-5.376,13.866-3.458,2.775,1.153,4.748,3.628,6.51,6.062,1.747,2.413,3.448,4.965,4.085,7.874s0,6.28-2.3,8.175a21.62,21.62,0,0,0-15.089-9.831,27.255,27.255,0,0,1,11.387,11.314,5.193,5.193,0,0,1,.806,2.9,5.256,5.256,0,0,1-.984,2.258,32.464,32.464,0,0,1-10.6,10.09,22.474,22.474,0,0,0-6.85-6.638,17.423,17.423,0,0,1,3.376,8.024,5.058,5.058,0,0,1,0,1.88,4.657,4.657,0,0,1-1.288,2.095c-3.51,3.623-8.956,4.294-13.86,5.471a53.514,53.514,0,0,0-22.612,11.675S1295.324,527.4,1295.139,511.026Z" transform="translate(-1275.91 -483.165)" fill="url(#linear-gradient-4)"/>
        <path id="Path_130" data-name="Path 130" d="M1275.185,529.9a19.769,19.769,0,0,1,.867-4.668,51.588,51.588,0,0,1,7.243-15.226l-3.418,2.832a32.791,32.791,0,0,1,20.371-25.719c3.235-1.235,7.861-1.379,9.163,1.83,0,0-15.192,7.333-15.007,23.706s-18.547,34.187-18.547,34.187a33.144,33.144,0,0,0,.125-10.086A38.739,38.739,0,0,1,1275.185,529.9Z" transform="translate(-1275.176 -484.794)" fill="url(#linear-gradient-4)"/>
      </g>
      <g id="Group_112" data-name="Group 112" transform="translate(40.236 0)">
        <path id="Path_131" data-name="Path 131" d="M1378.518,437.35c-1.484-16.128,12.911-24.566,12.911-24.566,3.659-3.321,8.7-6.036,13.4-4.513,2.828.917,4.97,3.2,6.9,5.459a21.606,21.606,0,0,1,4.654,7.439c.86,2.818.5,6.192-1.618,8.243a21.385,21.385,0,0,0-15.659-8.493,26.964,26.964,0,0,1,12.126,10.25,5.139,5.139,0,0,1,1.026,2.8,5.2,5.2,0,0,1-.79,2.3,32.115,32.115,0,0,1-9.653,10.791,22.24,22.24,0,0,0-7.282-6,17.239,17.239,0,0,1,3.968,7.643,5.005,5.005,0,0,1,.152,1.853,4.606,4.606,0,0,1-1.1,2.168c-3.172,3.851-8.488,4.946-13.231,6.5a52.942,52.942,0,0,0-21.365,13.309S1380,453.478,1378.518,437.35Z" transform="translate(-1360.928 -407.837)" fill="url(#linear-gradient-4)"/>
        <path id="Path_132" data-name="Path 132" d="M1358.762,458.792a19.519,19.519,0,0,1,.484-4.671,51.005,51.005,0,0,1,5.93-15.588l-3.144,3.064a32.435,32.435,0,0,1,18.039-26.978c3.092-1.476,7.641-1.985,9.179,1.076,0,0-14.395,8.438-12.91,24.566s-15.568,35.181-15.568,35.181a32.809,32.809,0,0,0-.679-9.954A38.317,38.317,0,0,1,1358.762,458.792Z" transform="translate(-1358.751 -410.747)" fill="url(#linear-gradient-4)"/>
      </g>
      <g id="Group_113" data-name="Group 113" transform="translate(50.511 48.136)">
        <path id="Path_133" data-name="Path 133" d="M1401.439,542.059c-5.035-15.393,7.122-26.822,7.122-26.822,2.828-4.052,7.134-7.819,12.056-7.379,2.961.264,5.557,2.014,7.943,3.787a21.619,21.619,0,0,1,6.193,6.217c1.466,2.556,1.862,5.926.256,8.4a21.385,21.385,0,0,0-17.156-4.8,26.963,26.963,0,0,1,14.1,7.3,5.142,5.142,0,0,1,1.622,2.5,5.2,5.2,0,0,1-.258,2.423,32.115,32.115,0,0,1-7.01,12.668,22.236,22.236,0,0,0-8.434-4.229,17.233,17.233,0,0,1,5.568,6.569,5,5,0,0,1,.56,1.773,4.6,4.6,0,0,1-.593,2.359c-2.236,4.46-7.175,6.71-11.454,9.277a52.935,52.935,0,0,0-17.87,17.728S1406.475,557.453,1401.439,542.059Z" transform="translate(-1387.35 -507.822)" fill="url(#linear-gradient-4)"/>
        <path id="Path_134" data-name="Path 134" d="M1381.167,570.508a19.563,19.563,0,0,1-.568-4.662,51.029,51.029,0,0,1,2.314-16.517l-2.384,3.687a32.437,32.437,0,0,1,11.585-30.315c2.687-2.126,7.008-3.634,9.189-.993,0,0-12.157,11.429-7.122,26.822s-7.351,37.763-7.351,37.763a32.8,32.8,0,0,0-2.876-9.554A38.316,38.316,0,0,1,1381.167,570.508Z" transform="translate(-1380.093 -514.293)" fill="url(#linear-gradient-4)"/>
      </g>
      <g id="Group_114" data-name="Group 114" transform="translate(84.368 6.344)">
        <path id="Path_135" data-name="Path 135" d="M1486.146,443.838c-.956-14.424-14.828-19.839-14.828-19.839-3.691-2.414-8.511-4.1-12.441-2.1-2.364,1.2-3.931,3.518-5.316,5.781a19.289,19.289,0,0,0-3.058,7.21c-.363,2.605.43,5.527,2.583,7.039a19.087,19.087,0,0,1,12.609-9.684,24.064,24.064,0,0,0-9.249,10.736,4.585,4.585,0,0,0-.512,2.609,4.652,4.652,0,0,0,1.02,1.92,28.671,28.671,0,0,0,10.023,8.156,19.842,19.842,0,0,1,5.576-6.311,15.381,15.381,0,0,0-2.424,7.294,4.471,4.471,0,0,0,.126,1.654,4.107,4.107,0,0,0,1.277,1.756c3.336,2.949,8.176,3.167,12.573,3.868a47.251,47.251,0,0,1,20.7,8.731S1487.1,458.262,1486.146,443.838Z" transform="translate(-1450.419 -421.015)" fill="url(#linear-gradient-4)"/>
        <path id="Path_136" data-name="Path 136" d="M1526.752,458.022a17.431,17.431,0,0,0-1.082-4.05,45.532,45.532,0,0,0-7.416-12.907l3.2,2.259a28.95,28.95,0,0,0-19.688-21.246c-2.932-.866-7.013-.676-7.94,2.237,0,0,13.872,5.416,14.828,19.839s18.66,28.823,18.66,28.823a29.283,29.283,0,0,1-.8-8.868A34.167,34.167,0,0,0,1526.752,458.022Z" transform="translate(-1472.93 -421.332)" fill="url(#linear-gradient-4)"/>
      </g>
    </g>
    <g id="Group_99" data-name="Group 99" transform="translate(329.104 3404.604)" opacity="0.97">
      <g id="Group_72" data-name="Group 72" transform="translate(0 50.995)">
        <path id="Path_60" data-name="Path 60" d="M1747.737,735.726V755.1l-77.371,39.9v-21.82Z" transform="translate(-1600.471 -711.121)" fill="url(#linear-gradient-14)"/>
        <path id="Path_61" data-name="Path 61" d="M1491.405,769.274v18.574l69.895,27.6v-21.82Z" transform="translate(-1491.405 -731.567)" fill="url(#linear-gradient-14)"/>
        <path id="Path_62" data-name="Path 62" d="M1747.743,728.644v19.375l-77.37,39.905V766.1Z" transform="translate(-1600.476 -706.805)" fill="#f2eece"/>
        <path id="Path_63" data-name="Path 63" d="M1491.405,762.184v18.577l69.895,27.6V786.542Z" transform="translate(-1491.405 -727.246)" fill="#fdf9d7"/>
        <path id="Path_64" data-name="Path 64" d="M1494.122,763.13l-2.717-.946v18.577l2.717,1.071Z" transform="translate(-1491.405 -727.246)" fill="#9b7f9c"/>
        <path id="Path_65" data-name="Path 65" d="M1491.405,707.666l79.3-34.938,67.969,21.837L1561.3,734.008Z" transform="translate(-1491.405 -672.727)" fill="url(#linear-gradient-16)"/>
        <g id="Group_65" data-name="Group 65" transform="translate(2.713 39.088)">
          <g id="Group_61" data-name="Group 61">
            <path id="Path_66" data-name="Path 66" d="M1565.67,799.008a.146.146,0,0,1-.133.093.151.151,0,0,1-.053-.012l-67.132-25.976v-.3a.15.15,0,0,1,.053.013l67.181,26A.142.142,0,0,1,1565.67,799.008Z" transform="translate(-1498.352 -772.809)" fill="#fae3cc"/>
          </g>
          <g id="Group_62" data-name="Group 62" transform="translate(0 3.911)">
            <path id="Path_67" data-name="Path 67" d="M1565.67,809.023a.154.154,0,0,1-.185.086l-67.132-25.98v-.305a.15.15,0,0,1,.053.011l67.181,26A.141.141,0,0,1,1565.67,809.023Z" transform="translate(-1498.352 -782.824)" fill="#fae3cc"/>
          </g>
          <g id="Group_63" data-name="Group 63" transform="translate(0 7.829)">
            <path id="Path_68" data-name="Path 68" d="M1565.67,819.052a.155.155,0,0,1-.133.094.15.15,0,0,1-.053-.012l-67.132-25.982v-.3a.149.149,0,0,1,.053.011l67.181,25.993A.149.149,0,0,1,1565.67,819.052Z" transform="translate(-1498.352 -792.855)" fill="#fae3cc"/>
          </g>
          <g id="Group_64" data-name="Group 64" transform="translate(0 11.739)">
            <path id="Path_69" data-name="Path 69" d="M1565.67,829.063a.142.142,0,0,1-.133.094.193.193,0,0,1-.053-.011l-67.132-25.978v-.3a.149.149,0,0,1,.053.013l67.181,26A.138.138,0,0,1,1565.67,829.063Z" transform="translate(-1498.352 -802.866)" fill="#fae3cc"/>
          </g>
        </g>
        <g id="Group_66" data-name="Group 66" transform="translate(69.898 25.539)">
          <path id="Path_70" data-name="Path 70" d="M1747.743,738.119v.308l-77.173,39.566a.1.1,0,0,1-.064.018.142.142,0,0,1-.13-.08.08.08,0,0,1,0-.025v-.082a.107.107,0,0,1,.069-.087l77.229-39.6A.164.164,0,0,1,1747.743,738.119Z" transform="translate(-1670.374 -738.119)" fill="#efddc5"/>
        </g>
        <g id="Group_67" data-name="Group 67" transform="translate(69.886 29.544)">
          <path id="Path_71" data-name="Path 71" d="M1747.725,748.372v.31l-77.173,39.571a.193.193,0,0,1-.064.012.15.15,0,0,1-.13-.076.074.074,0,0,1,0-.025.075.075,0,0,1,0-.08.106.106,0,0,1,.07-.093l77.229-39.6A.163.163,0,0,1,1747.725,748.372Z" transform="translate(-1670.344 -748.372)" fill="#efddc5"/>
        </g>
        <g id="Group_68" data-name="Group 68" transform="translate(69.898 33.455)">
          <path id="Path_72" data-name="Path 72" d="M1747.743,758.387v.314l-77.173,39.568a.12.12,0,0,1-.064.016.143.143,0,0,1-.13-.08.067.067,0,0,1,0-.023V798.1a.126.126,0,0,1,.069-.093l77.229-39.6A.132.132,0,0,1,1747.743,758.387Z" transform="translate(-1670.374 -758.387)" fill="#efddc5"/>
        </g>
        <g id="Group_69" data-name="Group 69" transform="translate(69.898 37.367)">
          <path id="Path_73" data-name="Path 73" d="M1747.743,768.4v.314l-77.173,39.566a.108.108,0,0,1-.064.017.143.143,0,0,1-.13-.081.068.068,0,0,1,0-.023v-.082a.11.11,0,0,1,.069-.088l77.229-39.606A.145.145,0,0,1,1747.743,768.4Z" transform="translate(-1670.374 -768.402)" fill="#efddc5"/>
        </g>
        <path id="Path_74" data-name="Path 74" d="M1553.776,799.883c-4.39-1.73-8.784-3.431-13.213-5.061-8.2-3.014-16.43-5.893-24.764-8.522-4.7-1.484-10.665-2.958-13.754-7.156-1.848-2.51-1.816-5.353-1.67-8.36a27.971,27.971,0,0,1,.7-5.034l-2.72-.824V783.5l67.182,26.532v-5.36C1561.563,803.2,1557.72,801.438,1553.776,799.883Z" transform="translate(-1495.639 -728.917)" fill="#dfdfdf" opacity="0.29" style="mix-blend-mode: multiply;isolation: isolate"/>
        <path id="Path_75" data-name="Path 75" d="M1743.143,730.87a31.3,31.3,0,0,1,.447,6.318c-.148,3.384-1.068,6.524-3.684,8.837-2.984,2.641-6.628,4.195-10.2,5.853-3.873,1.8-7.639,3.86-11.439,5.809a127.226,127.226,0,0,0-11.354,6.368c-3.484,2.266-6.67,4.925-10.287,7-3.6,2.061-7.352,3.831-11.128,5.55-3.566,1.625-7.135,3.69-10.886,4.854a15.511,15.511,0,0,1-4.238.744v5.724l77.369-39.905V728.644Z" transform="translate(-1600.476 -706.805)" fill="#dfdfdf" opacity="0.29" style="mix-blend-mode: multiply;isolation: isolate"/>
        <g id="Group_70" data-name="Group 70" transform="translate(120.123 15.266)">
          <path id="Path_76" data-name="Path 76" d="M1799.044,711.817c.83.213,1.656.44,2.48.673s1.651.453,2.47.7l4.916,1.476c1.63.517,3.266,1.018,4.888,1.558s3.25,1.063,4.868,1.618l0,0a.576.576,0,0,1,.09,1.049q-1.751.963-3.52,1.9c-1.172.633-2.359,1.24-3.545,1.849s-2.366,1.229-3.564,1.815-2.389,1.186-3.6,1.744a.117.117,0,0,1-.111-.2c1.12-.726,2.266-1.408,3.4-2.109s2.3-1.357,3.442-2.037,2.3-1.353,3.46-2,2.317-1.315,3.486-1.957l.094,1.051c-1.625-.532-3.244-1.084-4.861-1.64s-3.228-1.131-4.841-1.7l-4.813-1.782c-.8-.3-1.6-.621-2.394-.929s-1.594-.625-2.385-.955a.06.06,0,0,1-.031-.077A.059.059,0,0,1,1799.044,711.817Z" transform="translate(-1798.971 -711.816)" fill="#fff"/>
        </g>
        <g id="Group_71" data-name="Group 71" transform="translate(7.465 34.883)">
          <path id="Path_77" data-name="Path 77" d="M1510.589,762.043s.973.188,2.384.594,3.271,1.01,5.1,1.694,3.623,1.456,4.948,2.09,2.183,1.126,2.183,1.126a.119.119,0,0,1-.084.218s-.971-.2-2.377-.612-3.262-1.034-5.085-1.732-3.613-1.484-4.934-2.129-2.176-1.143-2.176-1.143a.059.059,0,0,1,.042-.109Z" transform="translate(-1510.518 -762.042)" fill="#fff"/>
        </g>
      </g>
      <g id="Group_86" data-name="Group 86" transform="translate(6.748 33.06)">
        <path id="Path_78" data-name="Path 78" d="M1509.061,699.071l1.043,19.347,79.4,35.687-1.175-21.789Z" transform="translate(-1508.914 -670.847)" fill="url(#linear-gradient-17)"/>
        <path id="Path_79" data-name="Path 79" d="M1780.521,712.292l1,18.549-68.31,31.321-1.175-21.789Z" transform="translate(-1632.614 -678.904)" fill="url(#linear-gradient-17)"/>
        <path id="Path_80" data-name="Path 80" d="M1508.684,692l1.042,19.347,79.4,35.687-1.173-21.788Z" transform="translate(-1508.684 -666.536)" fill="#f2eece"/>
        <path id="Path_81" data-name="Path 81" d="M1780.139,705.217l1,18.548-68.31,31.322-1.173-21.789Z" transform="translate(-1632.382 -674.593)" fill="#fdf9d7"/>
        <path id="Path_82" data-name="Path 82" d="M1880.188,706.309l2.662-1.091,1,18.548-2.655,1.218Z" transform="translate(-1735.093 -674.593)" fill="#8074af"/>
        <path id="Path_83" data-name="Path 83" d="M1656.441,657.43l-81.061-30.624-66.7,25.459,79.378,35.226Z" transform="translate(-1508.684 -626.806)" fill="url(#linear-gradient-19)"/>
        <g id="Group_77" data-name="Group 77" transform="translate(79.445 34.913)">
          <g id="Group_73" data-name="Group 73">
            <path id="Path_84" data-name="Path 84" d="M1712.109,745.978a.147.147,0,0,0,.141.086.132.132,0,0,0,.051-.014l65.637-29.55-.017-.3a.159.159,0,0,0-.051.014l-65.689,29.575A.143.143,0,0,0,1712.109,745.978Z" transform="translate(-1712.096 -716.199)" fill="#fae3cc"/>
          </g>
          <g id="Group_74" data-name="Group 74" transform="translate(0.211 3.905)">
            <path id="Path_85" data-name="Path 85" d="M1712.649,755.979a.144.144,0,0,0,.139.085.2.2,0,0,0,.053-.008l65.637-29.555-.017-.3a.161.161,0,0,0-.051.016l-65.688,29.573A.144.144,0,0,0,1712.649,755.979Z" transform="translate(-1712.635 -726.198)" fill="#fae3cc"/>
          </g>
          <g id="Group_75" data-name="Group 75" transform="translate(0.421 7.817)">
            <path id="Path_86" data-name="Path 86" d="M1713.188,765.992a.164.164,0,0,0,.139.089.246.246,0,0,0,.053-.016l65.637-29.555-.017-.3a.115.115,0,0,0-.049.016L1713.26,765.8A.149.149,0,0,0,1713.188,765.992Z" transform="translate(-1713.175 -736.213)" fill="#fae3cc"/>
          </g>
          <g id="Group_76" data-name="Group 76" transform="translate(0.632 11.722)">
            <path id="Path_87" data-name="Path 87" d="M1713.726,775.991a.145.145,0,0,0,.139.087.122.122,0,0,0,.051-.016l65.638-29.547-.016-.3a.214.214,0,0,0-.053.016L1713.8,775.8A.142.142,0,0,0,1713.726,775.991Z" transform="translate(-1713.713 -746.212)" fill="#fae3cc"/>
          </g>
        </g>
        <g id="Group_78" data-name="Group 78" transform="translate(0.198 29.155)">
          <path id="Path_88" data-name="Path 88" d="M1509.192,701.456l.017.31,79.185,35.359a.118.118,0,0,0,.066.014.136.136,0,0,0,.124-.088c.006-.006,0-.017,0-.022l0-.082a.113.113,0,0,0-.074-.085l-79.249-35.392A.162.162,0,0,0,1509.192,701.456Z" transform="translate(-1509.192 -701.455)" fill="#efddc5"/>
        </g>
        <g id="Group_79" data-name="Group 79" transform="translate(0.414 33.155)">
          <path id="Path_89" data-name="Path 89" d="M1509.743,711.7l.017.31,79.187,35.365a.251.251,0,0,0,.065.009.149.149,0,0,0,.124-.085c.006,0,0-.017,0-.023a.075.075,0,0,0,0-.081.116.116,0,0,0-.074-.09l-79.248-35.393A.179.179,0,0,0,1509.743,711.7Z" transform="translate(-1509.743 -711.697)" fill="#efddc5"/>
        </g>
        <g id="Group_80" data-name="Group 80" transform="translate(0.624 37.06)">
          <path id="Path_90" data-name="Path 90" d="M1510.281,721.7l.017.314,79.187,35.361a.108.108,0,0,0,.063.014.141.141,0,0,0,.125-.088.045.045,0,0,0,0-.023l0-.084a.145.145,0,0,0-.074-.088l-79.247-35.392A.151.151,0,0,0,1510.281,721.7Z" transform="translate(-1510.281 -721.695)" fill="#efddc5"/>
        </g>
        <g id="Group_81" data-name="Group 81" transform="translate(0.833 40.965)">
          <path id="Path_91" data-name="Path 91" d="M1510.817,731.695l.017.316,79.188,35.359a.1.1,0,0,0,.063.014.135.135,0,0,0,.124-.088.035.035,0,0,0,.006-.023l-.006-.082a.114.114,0,0,0-.073-.084l-79.249-35.4A.142.142,0,0,0,1510.817,731.695Z" transform="translate(-1510.817 -731.694)" fill="#efddc5"/>
        </g>
        <path id="Path_92" data-name="Path 92" d="M1725.4,746.218c4.289-1.964,8.586-3.9,12.92-5.764,8.026-3.452,16.093-6.767,24.27-9.84,4.618-1.737,10.492-3.529,13.35-7.888,1.712-2.607,1.526-5.441,1.218-8.437a28.091,28.091,0,0,0-.966-4.989l2.774-.964,1,18.548-65.761,30.1-.288-5.351C1717.808,749.947,1721.55,747.983,1725.4,746.218Z" transform="translate(-1633.764 -676.494)" fill="#dfdfdf" opacity="0.28" style="mix-blend-mode: multiply;isolation: isolate"/>
        <path id="Path_93" data-name="Path 93" d="M1513.394,693.973a31.617,31.617,0,0,0-.107,6.332c.333,3.37,1.418,6.458,4.154,8.626,3.122,2.475,6.843,3.831,10.5,5.3,3.966,1.585,7.835,3.444,11.734,5.186a127.1,127.1,0,0,1,11.679,5.749c3.6,2.076,6.927,4.56,10.649,6.433,3.707,1.865,7.549,3.43,11.409,4.944,3.648,1.43,7.326,3.3,11.129,4.261a15.538,15.538,0,0,0,4.277.517l.307,5.715-79.4-35.687L1508.684,692Z" transform="translate(-1508.684 -666.535)" fill="#dfdfdf" opacity="0.28" style="mix-blend-mode: multiply;isolation: isolate"/>
        <g id="Group_83" data-name="Group 83" transform="translate(7.045 17.441)">
          <g id="Group_82" data-name="Group 82">
            <path id="Path_94" data-name="Path 94" d="M1546.4,671.575c-.772.373-1.549.731-2.33,1.083s-1.555.717-2.34,1.057l-4.71,2.038c-1.58.655-3.154,1.325-4.742,1.958s-3.172,1.281-4.766,1.9l.039-1.054q1.8.868,3.585,1.767c1.2.587,2.378,1.2,3.561,1.816s2.373,1.213,3.546,1.849,2.351,1.258,3.51,1.922a.117.117,0,0,1-.1.211c-1.241-.492-2.461-1.03-3.691-1.547s-2.436-1.083-3.655-1.622-2.435-1.086-3.639-1.655-2.416-1.124-3.616-1.7a.575.575,0,0,1,.033-1.052l0,0c1.585-.641,3.179-1.262,4.774-1.878s3.2-1.214,4.8-1.818l4.828-1.738c.8-.29,1.62-.553,2.43-.832s1.622-.549,2.439-.8a.059.059,0,0,1,.043.108Z" transform="translate(-1526.721 -671.464)" fill="#fff"/>
          </g>
        </g>
        <g id="Group_85" data-name="Group 85" transform="translate(125.879 30.973)">
          <g id="Group_84" data-name="Group 84">
            <path id="Path_95" data-name="Path 95" d="M1845.387,706.219s-.822.552-2.111,1.258-3.032,1.588-4.812,2.39-3.6,1.519-4.984,2-2.344.739-2.344.739a.119.119,0,0,1-.094-.214s.827-.545,2.119-1.241,3.044-1.564,4.829-2.353,3.609-1.492,5-1.966,2.35-.722,2.35-.722a.059.059,0,0,1,.071.043A.058.058,0,0,1,1845.387,706.219Z" transform="translate(-1830.989 -706.111)" fill="#fff"/>
          </g>
        </g>
      </g>
      <g id="Group_98" data-name="Group 98" transform="translate(14.84 0)">
        <path id="Path_96" data-name="Path 96" d="M1785.735,605.158v19.376l-77.371,39.9v-21.82Z" transform="translate(-1638.469 -580.553)" fill="#e8a2be"/>
        <path id="Path_97" data-name="Path 97" d="M1529.4,638.706V657.28l69.895,27.6v-21.82Z" transform="translate(-1529.403 -600.999)" fill="#e8a2be"/>
        <path id="Path_98" data-name="Path 98" d="M1785.741,598.076V617.45l-77.369,39.905V635.534Z" transform="translate(-1638.474 -576.237)" fill="#f2eece"/>
        <path id="Path_99" data-name="Path 99" d="M1529.4,631.616v18.577l69.895,27.6V655.974Z" transform="translate(-1529.403 -596.678)" fill="#fdf9d7"/>
        <path id="Path_100" data-name="Path 100" d="M1532.12,632.562l-2.716-.946v18.577l2.716,1.071Z" transform="translate(-1529.403 -596.678)" fill="#ae7a8f"/>
        <path id="Path_101" data-name="Path 101" d="M1529.4,577.1l79.3-34.938L1676.669,564,1599.3,603.44Z" transform="translate(-1529.403 -542.159)" fill="url(#linear-gradient-20)"/>
        <g id="Group_91" data-name="Group 91" transform="translate(2.713 39.088)">
          <g id="Group_87" data-name="Group 87">
            <path id="Path_102" data-name="Path 102" d="M1603.668,668.44a.146.146,0,0,1-.133.093.158.158,0,0,1-.053-.012l-67.132-25.976v-.3a.153.153,0,0,1,.053.013l67.181,26A.142.142,0,0,1,1603.668,668.44Z" transform="translate(-1536.35 -642.241)" fill="#fae3cc"/>
          </g>
          <g id="Group_88" data-name="Group 88" transform="translate(0 3.911)">
            <path id="Path_103" data-name="Path 103" d="M1603.668,678.455a.154.154,0,0,1-.186.086l-67.132-25.98v-.305a.15.15,0,0,1,.053.011l67.181,26A.141.141,0,0,1,1603.668,678.455Z" transform="translate(-1536.35 -652.256)" fill="#fae3cc"/>
          </g>
          <g id="Group_89" data-name="Group 89" transform="translate(0 7.829)">
            <path id="Path_104" data-name="Path 104" d="M1603.668,688.484a.155.155,0,0,1-.133.094.15.15,0,0,1-.053-.012l-67.132-25.982v-.3a.16.16,0,0,1,.053.011l67.181,25.993A.149.149,0,0,1,1603.668,688.484Z" transform="translate(-1536.35 -662.287)" fill="#fae3cc"/>
          </g>
          <g id="Group_90" data-name="Group 90" transform="translate(0 11.739)">
            <path id="Path_105" data-name="Path 105" d="M1603.668,698.5a.143.143,0,0,1-.133.095.2.2,0,0,1-.053-.011L1536.35,672.6v-.3a.15.15,0,0,1,.053.012l67.181,26A.138.138,0,0,1,1603.668,698.5Z" transform="translate(-1536.35 -672.298)" fill="#fae3cc"/>
          </g>
        </g>
        <g id="Group_92" data-name="Group 92" transform="translate(69.898 25.539)">
          <path id="Path_106" data-name="Path 106" d="M1785.741,607.551v.308l-77.173,39.566a.1.1,0,0,1-.064.018.143.143,0,0,1-.13-.08.087.087,0,0,1,0-.025v-.082a.106.106,0,0,1,.07-.087l77.228-39.6A.165.165,0,0,1,1785.741,607.551Z" transform="translate(-1708.372 -607.551)" fill="#efddc5"/>
        </g>
        <g id="Group_93" data-name="Group 93" transform="translate(69.886 29.544)">
          <path id="Path_107" data-name="Path 107" d="M1785.723,617.8v.31l-77.173,39.571a.192.192,0,0,1-.064.013.151.151,0,0,1-.13-.076.068.068,0,0,1,0-.025.075.075,0,0,1,0-.08.106.106,0,0,1,.07-.093l77.228-39.6A.165.165,0,0,1,1785.723,617.8Z" transform="translate(-1708.342 -617.804)" fill="#efddc5"/>
        </g>
        <g id="Group_94" data-name="Group 94" transform="translate(69.898 33.455)">
          <path id="Path_108" data-name="Path 108" d="M1785.741,627.819v.314L1708.568,667.7a.121.121,0,0,1-.064.016.144.144,0,0,1-.13-.08.072.072,0,0,1,0-.023v-.082a.125.125,0,0,1,.07-.093l77.228-39.6A.131.131,0,0,1,1785.741,627.819Z" transform="translate(-1708.372 -627.819)" fill="#efddc5"/>
        </g>
        <g id="Group_95" data-name="Group 95" transform="translate(69.898 37.367)">
          <path id="Path_109" data-name="Path 109" d="M1785.741,637.834v.314l-77.173,39.566a.109.109,0,0,1-.064.017.143.143,0,0,1-.13-.08.076.076,0,0,1,0-.023v-.082a.11.11,0,0,1,.07-.088l77.228-39.607A.15.15,0,0,1,1785.741,637.834Z" transform="translate(-1708.372 -637.834)" fill="#efddc5"/>
        </g>
        <path id="Path_110" data-name="Path 110" d="M1591.774,669.819c-4.39-1.731-8.784-3.431-13.212-5.061-8.2-3.014-16.43-5.893-24.764-8.522-4.7-1.485-10.665-2.958-13.754-7.156-1.848-2.511-1.816-5.353-1.67-8.36a27.99,27.99,0,0,1,.7-5.034l-2.72-1.142v18.577l67.182,26.85v-5.36C1599.561,673.133,1595.718,671.374,1591.774,669.819Z" transform="translate(-1533.637 -598.462)" fill="#dfdfdf" opacity="0.34" style="mix-blend-mode: multiply;isolation: isolate"/>
        <path id="Path_111" data-name="Path 111" d="M1781.141,600.3a31.306,31.306,0,0,1,.447,6.318c-.149,3.384-1.068,6.524-3.684,8.837-2.984,2.641-6.628,4.195-10.2,5.853-3.873,1.8-7.639,3.86-11.439,5.809a127.213,127.213,0,0,0-11.354,6.368c-3.484,2.266-6.669,4.925-10.287,7-3.6,2.062-7.352,3.831-11.128,5.551-3.566,1.625-7.136,3.69-10.886,4.854a15.525,15.525,0,0,1-4.238.744v5.724l77.369-39.905V598.075Z" transform="translate(-1638.474 -576.237)" fill="#dfdfdf" opacity="0.34" style="mix-blend-mode: multiply;isolation: isolate"/>
        <g id="Group_96" data-name="Group 96" transform="translate(120.123 15.266)">
          <path id="Path_112" data-name="Path 112" d="M1837.042,581.249c.83.213,1.656.439,2.48.673s1.651.453,2.47.7l4.916,1.476c1.63.517,3.266,1.019,4.888,1.558s3.25,1.063,4.868,1.618h0a.576.576,0,0,1,.09,1.049q-1.751.964-3.52,1.9c-1.172.633-2.359,1.24-3.545,1.848s-2.366,1.229-3.564,1.816-2.389,1.186-3.6,1.744a.117.117,0,0,1-.111-.2c1.12-.726,2.266-1.408,3.4-2.109s2.3-1.357,3.442-2.037,2.3-1.354,3.46-2,2.317-1.315,3.486-1.957l.094,1.051c-1.625-.532-3.244-1.084-4.861-1.64s-3.228-1.13-4.841-1.7l-4.813-1.782c-.8-.3-1.6-.621-2.394-.929s-1.594-.625-2.385-.955a.06.06,0,0,1-.031-.077A.059.059,0,0,1,1837.042,581.249Z" transform="translate(-1836.969 -581.248)" fill="#fff"/>
        </g>
        <g id="Group_97" data-name="Group 97" transform="translate(7.465 34.883)">
          <path id="Path_113" data-name="Path 113" d="M1548.587,631.475s.973.188,2.384.594,3.271,1.01,5.1,1.694,3.623,1.456,4.948,2.09,2.182,1.126,2.182,1.126a.119.119,0,0,1-.084.218s-.97-.2-2.378-.612-3.262-1.034-5.085-1.732-3.613-1.484-4.934-2.128-2.176-1.143-2.176-1.143a.059.059,0,0,1-.02-.081A.06.06,0,0,1,1548.587,631.475Z" transform="translate(-1548.516 -631.474)" fill="#fff"/>
        </g>
      </g>
    </g>
  </g>
</svg>
