<svg xmlns="http://www.w3.org/2000/svg" width="40.398" height="40.405" viewBox="0 0 40.398 40.405">
  <g id="instagram_2_" data-name="instagram (2)" transform="translate(-0.449)">
    <path id="Path_4" data-name="Path 4" d="M40.744,11.879a14.764,14.764,0,0,0-.939-4.9,10.35,10.35,0,0,0-5.912-5.912,14.8,14.8,0,0,0-4.9-.939C26.828.024,26.141,0,20.655,0s-6.172.024-8.327.118a14.768,14.768,0,0,0-4.9.939A9.859,9.859,0,0,0,3.843,3.394,9.948,9.948,0,0,0,1.514,6.97a14.8,14.8,0,0,0-.939,4.9c-.1,2.163-.126,2.85-.126,8.335s.024,6.172.118,8.327a14.763,14.763,0,0,0,.939,4.9,10.349,10.349,0,0,0,5.912,5.912,14.8,14.8,0,0,0,4.9.939c2.155.095,2.842.118,8.327.118s6.172-.023,8.327-.118a14.761,14.761,0,0,0,4.9-.939,10.335,10.335,0,0,0,5.912-5.912,14.814,14.814,0,0,0,.939-4.9c.095-2.155.118-2.842.118-8.327s-.008-6.172-.1-8.327ZM37.1,28.376a11.075,11.075,0,0,1-.695,3.749,6.7,6.7,0,0,1-3.836,3.836,11.114,11.114,0,0,1-3.749.694c-2.131.095-2.77.118-8.161.118s-6.038-.023-8.162-.118a11.069,11.069,0,0,1-3.749-.694,6.217,6.217,0,0,1-2.32-1.508,6.282,6.282,0,0,1-1.508-2.32,11.116,11.116,0,0,1-.694-3.749c-.095-2.131-.118-2.771-.118-8.162s.023-6.038.118-8.161a11.069,11.069,0,0,1,.694-3.749A6.141,6.141,0,0,1,6.44,5.991,6.272,6.272,0,0,1,8.76,4.484a11.122,11.122,0,0,1,3.749-.695c2.131-.095,2.771-.118,8.161-.118s6.038.024,8.162.118a11.075,11.075,0,0,1,3.749.695A6.213,6.213,0,0,1,34.9,5.991,6.281,6.281,0,0,1,36.41,8.312a11.12,11.12,0,0,1,.695,3.749c.095,2.131.118,2.77.118,8.161s-.024,6.023-.118,8.154Zm0,0" transform="translate(0 0)" fill="#fff"/>
    <path id="Path_5" data-name="Path 5" d="M135.329,124.5a10.38,10.38,0,1,0,10.38,10.38A10.382,10.382,0,0,0,135.329,124.5Zm0,17.113a6.733,6.733,0,1,1,6.733-6.733A6.734,6.734,0,0,1,135.329,141.613Zm0,0" transform="translate(-114.673 -114.673)" fill="#fff"/>
    <path id="Path_6" data-name="Path 6" d="M367.3,91.025a2.423,2.423,0,1,1-2.423-2.423A2.423,2.423,0,0,1,367.3,91.025Zm0,0" transform="translate(-333.428 -81.608)" fill="#fff"/>
  </g>
</svg>
