<svg xmlns="http://www.w3.org/2000/svg" xmlns:xlink="http://www.w3.org/1999/xlink" width="57.2" height="47.77" viewBox="0 0 57.2 47.77">
  <defs>
    <linearGradient id="linear-gradient" y1="0.5" x2="1" y2="0.5" gradientUnits="objectBoundingBox">
      <stop offset="0" stop-color="#c0437b"/>
      <stop offset="1" stop-color="#d25d65"/>
    </linearGradient>
  </defs>
  <g id="quote" transform="translate(0 -7.858)" opacity="0.48">
    <g id="Group_612" data-name="Group 612" transform="translate(0 7.858)">
      <path id="Path_804" data-name="Path 804" d="M18.307,29.507a15.156,15.156,0,0,0-4.188-.611,13.161,13.161,0,0,0-5.251,1.076c1.32-4.832,4.491-13.171,10.808-14.11A1.5,1.5,0,0,0,20.9,14.782l1.381-4.938a1.5,1.5,0,0,0-1.241-1.89,10.486,10.486,0,0,0-1.412-.1c-7.582,0-15.091,7.914-18.26,19.246-1.86,6.648-2.405,16.643,2.176,22.934,2.564,3.52,6.3,5.4,11.117,5.588h.059a13.307,13.307,0,0,0,3.587-26.12Z" transform="translate(0 -7.858)" fill="url(#linear-gradient)"/>
      <path id="Path_805" data-name="Path 805" d="M74.933,35.791a13.339,13.339,0,0,0-8-6.284,15.155,15.155,0,0,0-4.187-.611,13.164,13.164,0,0,0-5.252,1.076c1.32-4.832,4.491-13.171,10.808-14.11a1.5,1.5,0,0,0,1.224-1.079l1.381-4.938a1.5,1.5,0,0,0-1.241-1.89,10.473,10.473,0,0,0-1.412-.1c-7.582,0-15.091,7.914-18.261,19.246-1.859,6.648-2.4,16.643,2.177,22.935,2.563,3.52,6.3,5.4,11.117,5.587h.059A13.307,13.307,0,0,0,74.933,35.791Z" transform="translate(-19.45 -7.858)" fill="url(#linear-gradient)"/>
    </g>
  </g>
</svg>
